<svg width="276" height="69" viewBox="0 0 276 69" fill="none" xmlns="http://www.w3.org/2000/svg">
<path d="M0.5 0H10.8165V68.1899H0.5V0ZM83.0322 0H103.665V68.1899H83.0322V0ZM113.982 0H124.298V68.1899H113.982V0ZM134.615 0H144.931V68.1899H134.615V0ZM155.248 0H165.564V68.1899H155.248V0ZM21.1331 0H52.0826V68.1899H21.1331V0ZM62.3992 0H72.7157V68.1899H62.3992V0Z" fill="#444444"/>
<path d="M234.234 0H254.867V68.1899H234.234V0ZM265.184 0H275.5V68.1899H265.184V0ZM172.335 0H203.285V68.1899H172.335V0ZM213.601 0H223.918V68.1899H213.601V0Z" fill="#444444"/>
</svg>
