<svg xmlns="http://www.w3.org/2000/svg" width="23" height="24" viewBox="0 0 23 24" fill="none">
  <path d="M15.2366 18.5491L14.6206 19.1652C14.5402 19.2455 14.442 19.2857 14.3259 19.2857C14.2099 19.2857 14.1072 19.2455 14.0179 19.1652L11.5 16.6339L8.98218 19.1652C8.89289 19.2455 8.79021 19.2857 8.67414 19.2857C8.55807 19.2857 8.45986 19.2455 8.3795 19.1652L7.76343 18.5491C7.68307 18.4688 7.64289 18.3705 7.64289 18.2545C7.64289 18.1384 7.68307 18.0357 7.76343 17.9464L10.2947 15.4286L7.76343 12.9107C7.68307 12.8214 7.64289 12.7188 7.64289 12.6027C7.64289 12.4866 7.68307 12.3884 7.76343 12.308L8.3795 11.692C8.45986 11.6116 8.55807 11.5714 8.67414 11.5714C8.79021 11.5714 8.89289 11.6116 8.98218 11.692L11.5 14.2098L14.0179 11.692C14.1072 11.6116 14.2099 11.5714 14.3259 11.5714C14.442 11.5714 14.5402 11.6116 14.6206 11.692L15.2366 12.308C15.317 12.3884 15.3572 12.4866 15.3572 12.6027C15.3572 12.7188 15.317 12.8214 15.2366 12.9107L12.7188 15.4286L15.2366 17.9464C15.317 18.0357 15.3572 18.1384 15.3572 18.2545C15.3572 18.3705 15.317 18.4688 15.2366 18.5491ZM2.07146 22.2857H20.9286V8.57143H2.07146V22.2857ZM7.21432 6V2.14286C7.21432 2.01786 7.17414 1.91518 7.09378 1.83482C7.01343 1.75446 6.91075 1.71429 6.78575 1.71429H5.92861C5.80361 1.71429 5.70093 1.75446 5.62057 1.83482C5.54021 1.91518 5.50003 2.01786 5.50003 2.14286V6C5.50003 6.125 5.54021 6.22768 5.62057 6.30804C5.70093 6.38839 5.80361 6.42857 5.92861 6.42857H6.78575C6.91075 6.42857 7.01343 6.38839 7.09378 6.30804C7.17414 6.22768 7.21432 6.125 7.21432 6ZM17.5 6V2.14286C17.5 2.01786 17.4599 1.91518 17.3795 1.83482C17.2991 1.75446 17.1965 1.71429 17.0715 1.71429H16.2143C16.0893 1.71429 15.9866 1.75446 15.9063 1.83482C15.8259 1.91518 15.7857 2.01786 15.7857 2.14286V6C15.7857 6.125 15.8259 6.22768 15.9063 6.30804C15.9866 6.38839 16.0893 6.42857 16.2143 6.42857H17.0715C17.1965 6.42857 17.2991 6.38839 17.3795 6.30804C17.4599 6.22768 17.5 6.125 17.5 6ZM22.6429 5.14286V22.2857C22.6429 22.75 22.4732 23.1518 22.134 23.4911C21.7947 23.8304 21.3929 24 20.9286 24H2.07146C1.60718 24 1.20539 23.8304 0.866106 23.4911C0.526821 23.1518 0.357178 22.75 0.357178 22.2857V5.14286C0.357178 4.67857 0.526821 4.27679 0.866106 3.9375C1.20539 3.59821 1.60718 3.42857 2.07146 3.42857H3.78575V2.14286C3.78575 1.55357 3.99557 1.04911 4.41521 0.629464C4.83486 0.209821 5.33932 0 5.92861 0H6.78575C7.37503 0 7.8795 0.209821 8.29914 0.629464C8.71878 1.04911 8.92861 1.55357 8.92861 2.14286V3.42857H14.0715V2.14286C14.0715 1.55357 14.2813 1.04911 14.7009 0.629464C15.1206 0.209821 15.625 0 16.2143 0H17.0715C17.6607 0 18.1652 0.209821 18.5849 0.629464C19.0045 1.04911 19.2143 1.55357 19.2143 2.14286V3.42857H20.9286C21.3929 3.42857 21.7947 3.59821 22.134 3.9375C22.4732 4.27679 22.6429 4.67857 22.6429 5.14286Z" fill="white"/>
</svg>