<svg width="16" height="16" viewBox="0 0 16 16" fill="none" xmlns="http://www.w3.org/2000/svg">
<path d="M13.9997 3.00001H12.6178L11.6173 1H4.38147L4.19702 1.36926L7.38947 4.56171C7.58985 4.53071 7.79072 4.50001 7.99964 4.50001C10.2052 4.50001 11.9996 6.29444 11.9996 8.50002C11.9996 8.70894 11.9689 8.90981 11.9379 9.11019L15.9839 13.1561C15.988 13.1037 15.9997 13.0535 15.9997 13V5.00001C15.9997 3.89698 15.1027 3.00001 13.9997 3.00001Z" fill="white"/>
<path d="M1.11e-05 1.41402L1.62789 3.0419C0.706496 3.21957 0.00673112 4.03012 0.00587111 5.00241L0.000500001 12.9995C0.000500001 14.1025 0.897475 15 2.00051 15H13.5859L14.5859 16L16 14.5859L1.41406 0L1.11e-05 1.41402ZM8.00003 12.5C5.79446 12.5 4.00002 10.7055 4.00002 8.49994C4.00002 7.62982 4.28524 6.82977 4.76058 6.17456L6.21066 7.62463C6.07827 7.88879 6.00002 8.18402 6.00002 8.49994C6.00002 9.60297 6.897 10.4999 8.00003 10.4999C8.31619 10.4999 8.61331 10.4241 8.87759 10.2916L10.3198 11.7338C9.66605 12.2102 8.86996 12.5 8.00003 12.5Z" fill="white"/>
</svg>
