<svg width="18" height="16" viewBox="0 0 18 16" fill="none" xmlns="http://www.w3.org/2000/svg">
<path d="M8.90911 11.0909C10.1141 11.0909 11.0909 10.1141 11.0909 8.90911C11.0909 7.70413 10.1141 6.72729 8.90911 6.72729C7.70413 6.72729 6.72729 7.70413 6.72729 8.90911C6.72729 10.1141 7.70413 11.0909 8.90911 11.0909Z" fill="white"/>
<path d="M6.22222 0L4.59556 1.77778H1.77778C0.795556 1.77778 0 2.57333 0 3.55556V14.2222C0 15.2044 0.795556 16 1.77778 16H16C16.9822 16 17.7778 15.2044 17.7778 14.2222V3.55556C17.7778 2.57333 16.9822 1.77778 16 1.77778H13.1822L11.5556 0H6.22222ZM8.88889 13.3333C6.43556 13.3333 4.44444 11.3422 4.44444 8.88889C4.44444 6.43556 6.43556 4.44444 8.88889 4.44444C11.3422 4.44444 13.3333 6.43556 13.3333 8.88889C13.3333 11.3422 11.3422 13.3333 8.88889 13.3333Z" fill="white"/>
</svg>
