<svg xmlns="http://www.w3.org/2000/svg" width="132" height="133" viewBox="0 0 132 133" fill="none">
  <path fill-rule="evenodd" clip-rule="evenodd" d="M24.75 20.8214H107.25C112.736 20.8214 117.975 23.0077 121.853 26.8439C125.689 30.7214 127.875 35.9602 127.875 41.4464V90.9464C127.875 96.4327 125.689 101.671 121.853 105.549C117.975 109.385 112.736 111.571 107.25 111.571H24.75C19.2638 111.571 14.025 109.385 10.1475 105.549C6.31125 101.671 4.125 96.4327 4.125 90.9464V41.4464C4.125 35.9602 6.31125 30.7214 10.1475 26.8439C14.025 23.0077 19.2638 20.8214 24.75 20.8214ZM24.75 29.0714H107.25C110.55 29.0714 113.685 30.3914 115.995 32.7014C118.305 35.0114 119.625 38.1464 119.625 41.4464V90.9464C119.625 94.2464 118.305 97.3814 115.995 99.6914C113.685 102.001 110.55 103.321 107.25 103.321H24.75C21.45 103.321 18.315 102.001 16.005 99.6914C13.695 97.3814 12.375 94.2464 12.375 90.9464V41.4464C12.375 38.1464 13.695 35.0114 16.005 32.7014C18.315 30.3914 21.45 29.0714 24.75 29.0714Z" fill="#EBC76B"/>
  <path d="M121.894 37.7752C122.884 37.2802 123.998 37.1977 125.07 37.5277C126.101 37.899 126.968 38.6415 127.421 39.5902C127.916 40.5802 127.999 41.694 127.669 42.7665C127.298 43.7977 126.555 44.664 125.606 45.1177L75.24 70.3215C75.1988 70.3215 75.1575 70.3627 75.1163 70.3627C72.27 71.6827 69.135 72.3427 66 72.3015C62.8651 72.3427 59.7301 71.6827 56.8838 70.3627C56.8426 70.3627 56.8013 70.3215 56.7601 70.3215L6.3938 45.1177C5.44505 44.664 4.70255 43.7977 4.3313 42.7665C4.0013 41.694 4.0838 40.5802 4.5788 39.5902C5.03255 38.6415 5.8988 37.899 6.93005 37.5277C8.00255 37.1977 9.1163 37.2802 10.1063 37.7752L60.4313 62.8965C62.1638 63.7215 64.0613 64.0927 66 64.0515C67.9388 64.0927 69.8363 63.7215 71.5688 62.8965L121.894 37.7752Z" fill="#EBC76B"/>
  <path d="M44.4177 73.6918C43.3385 73.7209 42.2884 74.1293 41.5009 74.9168L26.9168 89.5009C26.1293 90.2884 25.7209 91.3385 25.6918 92.4177C25.7209 93.4969 26.1293 94.547 26.9168 95.3345C27.7044 96.1221 28.7544 96.5304 29.8336 96.5596C30.9129 96.5304 31.9629 96.1221 32.7504 95.3345L47.3345 80.7505C48.1221 79.9629 48.5304 78.9129 48.5596 77.8336C48.5304 76.7544 48.1221 75.7044 47.3345 74.9168C46.547 74.1293 45.4969 73.7209 44.4177 73.6918Z" fill="#56C568"/>
  <path d="M18.6918 85.8337C18.7209 86.913 19.1293 87.963 19.9168 88.7506L26.6664 95.5001C27.4539 96.2876 28.504 96.696 29.5832 96.7252C30.6624 96.696 31.7125 96.2877 32.5 95.5001C33.2875 94.7126 33.6959 93.6625 33.7251 92.5833C33.6959 91.5041 33.2875 90.454 32.5 89.6665L25.7505 82.9169C24.963 82.1293 23.9129 81.721 22.8337 81.6918C21.7544 81.721 20.7044 82.1294 19.9168 82.9169C19.1293 83.7045 18.7209 84.7545 18.6918 85.8337Z" fill="#56C568"/>
</svg>