<svg width="132" height="133" viewBox="0 0 132 133" fill="none" xmlns="http://www.w3.org/2000/svg">
<path fill-rule="evenodd" clip-rule="evenodd" d="M24.75 20.8214H107.25C112.736 20.8214 117.975 23.0077 121.853 26.8439C125.689 30.7214 127.875 35.9602 127.875 41.4464V90.9464C127.875 96.4327 125.689 101.671 121.853 105.549C117.975 109.385 112.736 111.571 107.25 111.571H24.75C19.2638 111.571 14.025 109.385 10.1475 105.549C6.31125 101.671 4.125 96.4327 4.125 90.9464V41.4464C4.125 35.9602 6.31125 30.7214 10.1475 26.8439C14.025 23.0077 19.2638 20.8214 24.75 20.8214ZM24.75 29.0714H107.25C110.55 29.0714 113.685 30.3914 115.995 32.7014C118.305 35.0114 119.625 38.1464 119.625 41.4464V90.9464C119.625 94.2464 118.305 97.3814 115.995 99.6914C113.685 102.001 110.55 103.321 107.25 103.321H24.75C21.45 103.321 18.315 102.001 16.005 99.6914C13.695 97.3814 12.375 94.2464 12.375 90.9464V41.4464C12.375 38.1464 13.695 35.0114 16.005 32.7014C18.315 30.3914 21.45 29.0714 24.75 29.0714Z" fill="#C1BDB1"/>
<path d="M121.894 37.7751C122.884 37.2801 123.997 37.1977 125.07 37.5277C126.101 37.8989 126.967 38.6414 127.421 39.5902C127.916 40.5802 127.999 41.6939 127.669 42.7664C127.297 43.7976 126.555 44.6639 125.606 45.1177L75.24 70.3214C75.1987 70.3214 75.1575 70.3627 75.1162 70.3627C72.27 71.6827 69.135 72.3427 66 72.3014C62.865 72.3427 59.73 71.6827 56.8837 70.3627C56.8425 70.3627 56.8012 70.3214 56.76 70.3214L6.39374 45.1177C5.44499 44.6639 4.70249 43.7976 4.33124 42.7664C4.00124 41.6939 4.08374 40.5802 4.57874 39.5902C5.03249 38.6414 5.89874 37.8989 6.92999 37.5277C8.00249 37.1977 9.11624 37.2801 10.1062 37.7751L60.4312 62.8964C62.1637 63.7214 64.0612 64.0926 66 64.0514C67.9387 64.0926 69.8362 63.7214 71.5687 62.8964L121.894 37.7751Z" fill="#C1BDB1"/>
<path d="M44.8387 78.5591L29.5591 93.8387C28.9859 94.4119 28.2187 94.7441 27.4263 94.7622C26.6338 94.7804 25.881 94.4829 25.3335 93.9354C24.786 93.3879 24.4886 92.6351 24.5067 91.8426C24.5248 91.0502 24.857 90.283 25.4302 89.7098L40.7098 74.4302C41.283 73.857 42.0502 73.5248 42.8426 73.5067C43.6351 73.4886 44.3879 73.786 44.9354 74.3335C45.483 74.881 45.7804 75.6338 45.7622 76.4263C45.7441 77.2187 45.4119 77.9859 44.8387 78.5591Z" fill="#C43838"/>
<path d="M40.7099 93.8387L25.4304 78.5591C24.8572 77.9859 24.525 77.2187 24.5068 76.4263C24.4887 75.6338 24.7861 74.881 25.3336 74.3335C25.8811 73.786 26.6339 73.4886 27.4264 73.5067C28.2189 73.5248 28.9861 73.857 29.5593 74.4302L44.8388 89.7098C45.412 90.283 45.7442 91.0502 45.7624 91.8427C45.7805 92.6351 45.4831 93.3879 44.9356 93.9354C44.388 94.483 43.6352 94.7804 42.8428 94.7622C42.0503 94.7441 41.2831 94.4119 40.7099 93.8387Z" fill="#C43838"/>
</svg>
