<svg xmlns="http://www.w3.org/2000/svg" width="132" height="132" viewBox="0 0 132 132" fill="none">
  <path d="M66 80.4375C62.1709 80.4375 58.4987 78.9164 55.7912 76.2089C53.0836 73.5013 51.5625 69.8291 51.5625 66C51.5599 63.8561 52.0466 61.7399 52.9856 59.8125C53.2263 59.3202 53.6527 58.9437 54.171 58.7658C54.6893 58.5878 55.2571 58.6231 55.7494 58.8638C56.2417 59.1045 56.6182 59.5309 56.7962 60.0492C56.9741 60.5675 56.9388 61.1352 56.6981 61.6275C56.0296 62.9879 55.6838 64.4842 55.6875 66C55.6875 68.7351 56.774 71.3581 58.708 73.2921C60.6419 75.226 63.265 76.3125 66 76.3125C68.7351 76.3125 71.3581 75.226 73.292 73.2921C75.226 71.3581 76.3125 68.7351 76.3125 66C76.3125 65.453 76.5298 64.9284 76.9166 64.5416C77.3034 64.1548 77.828 63.9375 78.375 63.9375C78.922 63.9375 79.4466 64.1548 79.8334 64.5416C80.2202 64.9284 80.4375 65.453 80.4375 66C80.4375 69.8291 78.9164 73.5013 76.2089 76.2089C73.5013 78.9164 69.8291 80.4375 66 80.4375ZM74.745 59.3175C74.4721 59.3164 74.2022 59.2611 73.9508 59.1549C73.6994 59.0487 73.4716 58.8937 73.2806 58.6988C71.348 56.771 68.7298 55.6881 66 55.6875C64.4633 55.6742 62.9448 56.0203 61.5656 56.6982C61.3219 56.8173 61.057 56.8873 60.7862 56.9041C60.5154 56.921 60.2439 56.8843 59.9873 56.7962C59.7306 56.7081 59.4939 56.5703 59.2905 56.3907C59.0871 56.2111 58.9211 55.9932 58.8019 55.7494C58.6827 55.5056 58.6127 55.2408 58.5959 54.97C58.5791 54.6991 58.6158 54.4277 58.7039 54.171C58.792 53.9144 58.9298 53.6776 59.1094 53.4742C59.289 53.2708 59.5069 53.1048 59.7506 52.9857C62.4536 51.6839 65.4949 51.2566 68.452 51.763C71.409 52.2693 74.1348 53.6843 76.2506 55.8113C76.6348 56.1977 76.8504 56.7205 76.8504 57.2653C76.8504 57.8102 76.6348 58.333 76.2506 58.7194C76.053 58.9156 75.8178 59.0697 75.559 59.1725C75.3002 59.2753 75.0234 59.3246 74.745 59.3175Z" fill="#C4C4C4"/>
  <path d="M59.8125 102.568H59.4618C53.7303 101.536 48.3218 99.1708 43.6736 95.6624C39.0253 92.154 35.2676 87.6013 32.7041 82.3722C30.1406 77.1431 28.8433 71.3842 28.9169 65.561C28.9905 59.7378 30.4331 54.0136 33.1279 48.851C35.8228 43.6884 39.6944 39.2321 44.4299 35.8424C49.1654 32.4527 54.6319 30.2245 60.3877 29.338C66.1435 28.4516 72.0272 28.9316 77.5631 30.7393C83.0991 32.5471 88.1322 35.6319 92.2556 39.7444C92.4489 39.9361 92.6023 40.1642 92.707 40.4156C92.8117 40.6669 92.8657 40.9365 92.8657 41.2088C92.8657 41.481 92.8117 41.7506 92.707 42.002C92.6023 42.2533 92.4489 42.4814 92.2556 42.6732L76.3124 58.7194C75.9241 59.1078 75.3973 59.326 74.8481 59.326C74.2988 59.326 73.7721 59.1078 73.3837 58.7194C72.9953 58.331 72.7771 57.8043 72.7771 57.255C72.7771 56.7058 72.9953 56.179 73.3837 55.7906L87.8212 41.3531C81.8259 35.974 74.0547 32.9992 65.9999 33C57.754 33.0038 49.8083 36.0946 43.7273 41.6638C37.6463 47.2329 33.8705 54.877 33.1436 63.0908C32.4166 71.3046 34.7911 79.4929 39.7995 86.0435C44.8079 92.5942 52.0873 97.0324 60.2043 98.4844C60.7513 98.5309 61.2575 98.7928 61.6114 99.2125C61.9653 99.6321 62.138 100.175 62.0915 100.722C62.045 101.269 61.7831 101.775 61.3635 102.129C60.9438 102.483 60.4007 102.656 59.8537 102.609L59.8125 102.568Z" fill="#C4C4C4"/>
  <path d="M72.1875 102.568C71.6405 102.615 71.0974 102.442 70.6778 102.088C70.2581 101.734 69.9962 101.228 69.9497 100.681C69.9032 100.134 70.0759 99.5909 70.4298 99.1712C70.7837 98.7515 71.2899 98.4896 71.8369 98.4431C79.1122 97.1513 85.7434 93.4552 90.6684 87.9468C95.5935 82.4384 98.5273 75.4364 99 68.0625H78.375C77.828 68.0625 77.3034 67.8452 76.9166 67.4584C76.5298 67.0716 76.3125 66.547 76.3125 66C76.3125 65.453 76.5298 64.9284 76.9166 64.5416C77.3034 64.1548 77.828 63.9375 78.375 63.9375H101.063C101.61 63.9375 102.134 64.1548 102.521 64.5416C102.908 64.9284 103.125 65.453 103.125 66C103.124 74.7186 100.054 83.1588 94.4543 89.8411C88.8542 96.5235 81.081 101.022 72.4969 102.548L72.1875 102.568Z" fill="#C4C4C4"/>
  <path d="M66 125.813C52.3265 125.795 39.0688 121.109 28.4213 112.53C28.0763 112.172 27.8722 111.702 27.8465 111.205C27.8209 110.709 27.9754 110.22 28.2816 109.828C28.5879 109.437 29.0252 109.169 29.5132 109.074C30.0012 108.979 30.507 109.064 30.9375 109.313C42.0245 118.286 56.1322 122.664 70.3516 121.542C84.5711 120.421 97.818 113.886 107.361 103.285C116.904 92.6836 122.015 78.8249 121.641 64.5663C121.267 50.3076 115.436 36.736 105.35 26.6502C95.264 16.5643 81.6925 10.733 67.4338 10.3588C53.1751 9.98464 39.3164 15.096 28.7154 24.639C18.1144 34.182 11.5794 47.429 10.4578 61.6484C9.33626 75.8679 13.7137 89.9756 22.6875 101.063C22.8582 101.274 22.9855 101.517 23.0623 101.777C23.1391 102.038 23.1639 102.311 23.1351 102.581C23.1064 102.851 23.0248 103.112 22.8949 103.351C22.765 103.589 22.5894 103.8 22.3782 103.971C22.1669 104.141 21.9241 104.269 21.6636 104.345C21.4031 104.422 21.1301 104.447 20.86 104.418C20.59 104.39 20.3282 104.308 20.0898 104.178C19.8513 104.048 19.6407 103.873 19.47 103.661C10.9271 93.1209 6.22157 79.9892 6.12588 66.4219C6.03018 52.8546 10.55 39.6579 18.9434 28.9981C27.3368 18.3382 39.105 10.8488 52.3162 7.75908C65.5273 4.66941 79.3964 6.16313 91.6467 11.9951C103.897 17.827 113.801 27.6505 119.732 39.8531C125.663 52.0557 127.269 65.9123 124.286 79.148C121.304 92.3838 113.91 104.212 103.319 112.692C92.7273 121.172 79.5677 125.798 66 125.813Z" fill="#C4C4C4"/>
  <path d="M57.75 63.9375C61.1673 63.9375 63.9375 61.1673 63.9375 57.75C63.9375 54.3327 61.1673 51.5625 57.75 51.5625C54.3327 51.5625 51.5625 54.3327 51.5625 57.75C51.5625 61.1673 54.3327 63.9375 57.75 63.9375Z" fill="#C43838"/>
  <path d="M66 109.312C70.5563 109.312 74.25 105.619 74.25 101.062C74.25 96.5062 70.5563 92.8125 66 92.8125C61.4437 92.8125 57.75 96.5062 57.75 101.062C57.75 105.619 61.4437 109.312 66 109.312Z" fill="#C43838"/>
  <path d="M24.75 115.5C29.3063 115.5 33 111.806 33 107.25C33 102.694 29.3063 99 24.75 99C20.1937 99 16.5 102.694 16.5 107.25C16.5 111.806 20.1937 115.5 24.75 115.5Z" fill="#C43838"/>
  <path d="M108.302 23.6981C108.109 23.507 107.881 23.3557 107.629 23.2531C107.378 23.1505 107.109 23.0984 106.838 23.1C106.566 23.0984 106.297 23.1505 106.046 23.2531C105.794 23.3557 105.566 23.507 105.373 23.6981L64.5357 64.5356C64.2495 64.8257 64.0556 65.194 63.9785 65.5941C63.9014 65.9942 63.9446 66.4082 64.1025 66.7838C64.2573 67.1604 64.52 67.4828 64.8577 67.7104C65.1954 67.938 65.5929 68.0605 66 68.0625H123.75C124.297 68.0625 124.822 67.8452 125.208 67.4584C125.595 67.0716 125.813 66.547 125.813 66C125.828 58.1425 124.289 50.3596 121.284 43.0995C118.279 35.8394 113.867 29.2457 108.302 23.6981Z" fill="#C43838"/>
  <path d="M66 70.125C68.2782 70.125 70.125 68.2782 70.125 66C70.125 63.7218 68.2782 61.875 66 61.875C63.7218 61.875 61.875 63.7218 61.875 66C61.875 68.2782 63.7218 70.125 66 70.125Z" fill="#A72F2F"/>
</svg>