<svg width="300" height="226" viewBox="0 0 300 226" fill="none" xmlns="http://www.w3.org/2000/svg">
<path fill-rule="evenodd" clip-rule="evenodd" d="M35.5735 132.059C33.6012 132.059 32 130.592 32 128.773V109.143C32 107.322 33.6012 105.853 35.5735 105.853C37.5459 105.853 39.1471 107.322 39.1471 109.143V128.773C39.1471 130.592 37.5459 132.059 35.5735 132.059Z" fill="#202F79"/>
<path fill-rule="evenodd" clip-rule="evenodd" d="M131.541 51.5738C152.322 48.1594 172.393 55.8958 185.765 70.4022L189.236 67.713C180.94 57.9421 169.22 50.6663 155.211 47.7086C126.358 41.6148 97.1615 55.7252 84.4121 80.0927L88.4228 82.0292C97.1812 66.3546 112.629 54.6805 131.541 51.5738Z" fill="#AFDDF1"/>
<path fill-rule="evenodd" clip-rule="evenodd" d="M95.4199 132.059C90.5216 132.059 83.3665 129.531 78.4991 119.841C76.9637 116.788 76.6098 115.802 76.2462 114.64C76.0045 113.87 75.7318 112.993 74.15 109.695C71.3459 103.831 65.8481 101.809 62.3363 101.118V127.98C62.3363 129.864 60.8802 131.384 59.0798 131.384C57.2813 131.384 55.8232 129.864 55.8232 127.98V97.3454C55.8232 95.4851 57.2543 93.9673 59.0334 93.9414C59.629 93.9474 73.8773 93.8717 79.9804 106.647C81.7692 110.392 82.125 111.523 82.4383 112.515C82.6665 113.254 82.8695 113.896 84.2657 116.674C87.6596 123.426 91.9449 124.962 94.5613 125.201L94.571 97.7836C94.5749 95.9034 96.033 94.3796 97.8295 94.3796C99.6299 94.3816 101.088 95.9073 101.088 97.7876L101.078 128.348C101.074 129.878 100.102 131.22 98.6939 131.631C97.8101 131.89 96.6924 132.059 95.4199 132.059Z" fill="#202F79"/>
<path fill-rule="evenodd" clip-rule="evenodd" d="M171.032 132.059C169.77 132.059 168.664 131.889 167.784 131.63C166.39 131.22 165.422 129.878 165.422 128.348L165.412 97.7872C165.412 95.907 166.858 94.3812 168.643 94.3792C170.424 94.3792 171.87 95.903 171.874 97.7853L171.883 125.187C174.483 124.94 178.741 123.396 182.095 116.674C183.475 113.895 183.673 113.254 183.903 112.515C184.213 111.523 184.564 110.392 186.34 106.647C192.389 93.8853 206.873 93.939 207.49 93.941C209.275 93.9669 210.701 95.5126 210.677 97.3929C210.652 99.2592 209.21 100.757 207.45 100.757C207.436 100.757 207.423 100.755 207.413 100.757C207.172 100.757 196.314 100.839 192.121 109.694C190.552 112.993 190.282 113.869 190.042 114.64C189.682 115.801 189.331 116.787 187.808 119.841C182.983 129.529 175.886 132.059 171.032 132.059Z" fill="#202F79"/>
<path fill-rule="evenodd" clip-rule="evenodd" d="M133.249 102.834C127.567 102.834 125.156 104.05 124.134 105.077C123.113 106.097 121.89 108.511 121.89 114.19C121.89 119.875 123.113 122.286 124.134 123.307C125.156 124.329 127.567 125.547 133.249 125.547C138.932 125.547 141.343 124.329 142.365 123.307C143.386 122.286 144.609 119.875 144.609 114.19C144.609 108.511 143.386 106.097 142.365 105.077C141.343 104.05 138.932 102.834 133.249 102.834ZM133.249 132.059C126.808 132.059 122.321 130.703 119.533 127.912C116.741 125.119 115.383 120.629 115.383 114.19C115.383 107.75 116.741 103.262 119.533 100.473C122.321 97.6783 126.808 96.3237 133.249 96.3237C139.691 96.3237 144.178 97.6783 146.966 100.473C149.758 103.262 151.118 107.752 151.118 114.19C151.118 120.629 149.758 125.119 146.966 127.912C144.178 130.703 139.691 132.059 133.249 132.059Z" fill="#202F79"/>
<path fill-rule="evenodd" clip-rule="evenodd" d="M216.632 132.059C214.66 132.059 213.059 130.592 213.059 128.773V109.143C213.059 107.322 214.66 105.853 216.632 105.853C218.604 105.853 220.206 107.322 220.206 109.143V128.773C220.206 130.592 218.604 132.059 216.632 132.059Z" fill="#202F79"/>
<path fill-rule="evenodd" clip-rule="evenodd" d="M216.632 101.088C214.657 101.088 213.059 99.4874 213.059 97.5139C213.059 95.5383 214.657 93.9414 216.632 93.9414C218.607 93.9414 220.206 95.5383 220.206 97.5139C220.206 99.4874 218.607 101.088 216.632 101.088Z" fill="#202F79"/>
<path fill-rule="evenodd" clip-rule="evenodd" d="M35.5735 101.088C33.5987 101.088 32 99.4874 32 97.5139C32 95.5383 33.5987 93.9414 35.5735 93.9414C37.5463 93.9414 39.1471 95.5383 39.1471 97.5139C39.1471 99.4874 37.5463 101.088 35.5735 101.088Z" fill="#202F79"/>
<path fill-rule="evenodd" clip-rule="evenodd" d="M263.737 100.471C260.942 97.6783 256.451 96.3237 250.006 96.3237C243.558 96.3237 239.063 97.6783 236.272 100.471C233.477 103.264 232.117 107.75 232.117 114.188C232.117 120.633 233.477 125.119 236.272 127.908C239.063 130.701 243.558 132.059 250.006 132.059V132.05C250.029 132.05 250.053 132.059 250.082 132.059C251.873 132.059 253.323 130.594 253.323 128.802C253.323 127.014 251.873 125.549 250.082 125.549C250.053 125.549 250.029 125.557 250.006 125.557V125.549C244.314 125.549 241.9 124.328 240.879 123.306C239.856 122.284 238.635 119.874 238.635 114.188C238.635 108.509 239.856 106.095 240.879 105.075C241.9 104.055 244.314 102.834 250.006 102.834C255.691 102.834 258.108 104.055 259.128 105.075C259.922 105.866 260.826 107.523 261.195 110.874H246.409C244.61 110.874 243.151 112.329 243.151 114.129C243.151 115.928 244.61 117.384 246.409 117.384H264.39C266.187 117.384 267.852 115.928 267.852 114.129V112.943C267.682 107.181 266.342 103.074 263.737 100.471Z" fill="#202F79"/>
<path fill-rule="evenodd" clip-rule="evenodd" d="M105.084 74.3782C102.635 76.964 103.031 81.187 105.89 83.2885C108.19 84.9717 111.386 84.7596 113.347 82.6781C117.385 78.383 122.456 75.1507 128.013 73.3334C130.759 72.4308 132.454 69.6368 131.98 66.7368L130.974 60.5884C122.16 62.4257 114.115 66.4505 107.419 72.0886C106.617 72.8231 105.834 73.5876 105.084 74.3782Z" fill="#62B8E8"/>
<path fill-rule="evenodd" clip-rule="evenodd" d="M143.336 167.785C160.061 167.473 174.87 159.58 184.471 147.506L183.65 146.962C180.282 144.749 175.597 145.091 172.755 147.871C161.422 158.968 143.448 163.261 127.141 157.41C120.628 155.074 115.124 151.384 110.855 146.83C108.007 143.79 103.184 143.078 99.4347 145.158L98.7061 145.558C108.627 159.283 125.002 168.124 143.336 167.785Z" fill="#AFDDF1"/>
<mask id="mask0_3038_2225" style="mask-type:alpha" maskUnits="userSpaceOnUse" x="141" y="160" width="63" height="34">
<path d="M141.588 160.647H203.529V194H141.588V160.647Z" fill="white"/>
</mask>
<g mask="url(#mask0_3038_2225)">
<path fill-rule="evenodd" clip-rule="evenodd" d="M202.55 161.206C201.453 160.325 199.871 160.504 198.989 161.611C197.688 163.247 196.31 164.834 194.859 166.365C181.553 180.428 163.196 188.497 144.1 188.771C142.706 188.793 141.588 189.952 141.588 191.378V191.384C141.588 192.847 142.764 194.018 144.195 194C164.649 193.694 184.301 185.05 198.545 169.995C199.319 169.18 200.067 168.349 200.802 167.506C201.548 166.649 202.271 165.774 202.969 164.886C203.86 163.758 203.664 162.102 202.55 161.206Z" fill="#62B8E8"/>
</g>
<path fill-rule="evenodd" clip-rule="evenodd" d="M80.5995 64.7639C81.6784 65.6778 83.2575 65.5093 84.1435 64.3902C85.4588 62.737 86.8449 61.1386 88.3078 59.5869C101.706 45.3923 120.062 37.3842 139.056 37.3395C140.447 37.3395 141.569 36.1676 141.589 34.7154V34.7053C141.604 33.2105 140.447 31.996 139.023 32C118.678 32.0549 99.0285 40.6317 84.6869 55.8336C83.9073 56.6603 83.1492 57.495 82.4109 58.346C81.6568 59.2173 80.9303 60.1007 80.2254 61.0005C79.3236 62.1419 79.4989 63.8337 80.5995 64.7639Z" fill="#62B8E8"/>
<path fill-rule="evenodd" clip-rule="evenodd" d="M194.723 141.588C186.9 157.508 172.291 169.836 153.846 173.881C142.715 176.32 131.63 175.429 121.596 171.88L120.147 176.285C123.53 177.443 127.065 178.342 130.754 178.921C159.448 183.445 187.455 168 198.765 143.291L194.723 141.588Z" fill="#AFDDF1"/>
<path fill-rule="evenodd" clip-rule="evenodd" d="M126.364 181.98C121.766 180.981 117.315 179.305 113.172 177.014C110.604 175.585 109.851 172.2 111.468 169.833C112.879 167.759 115.631 167.214 117.887 168.443C121.05 170.179 124.44 171.449 127.942 172.231C130.432 172.785 132.218 175.045 132.047 177.588C131.852 180.49 129.209 182.598 126.364 181.98Z" fill="#62B8E8"/>
<path fill-rule="evenodd" clip-rule="evenodd" d="M169.594 70.1126C169.034 70.1455 168.457 70.0237 167.929 69.7279C163.452 67.2454 158.653 65.4995 153.664 64.5347C151.966 64.2061 150.848 62.5356 151.174 60.8013C151.495 59.0671 153.132 57.9341 154.832 58.2628C160.461 59.3551 165.879 61.3253 170.924 64.1268C172.441 64.9697 173.004 66.9051 172.177 68.4557C171.639 69.461 170.641 70.0565 169.594 70.1126Z" fill="#62B8E8"/>
<path fill-rule="evenodd" clip-rule="evenodd" d="M168.337 89.1764C166.845 89.1764 165.582 88.6155 164.551 87.5121C163.536 86.4068 163.029 84.9755 163.029 83.2473C163.029 81.4511 163.536 80.0013 164.551 78.9124C165.565 77.8091 166.829 77.2646 168.352 77.2646C169.672 77.2646 170.818 77.7266 171.775 78.6484C172.297 79.1764 172.341 79.9023 171.933 80.3787C171.543 80.9066 170.963 80.9726 170.397 80.4468C169.802 79.8528 169.091 79.5558 168.25 79.5558C167.452 79.5558 166.757 79.8858 166.146 80.5457C165.552 81.1871 165.248 82.076 165.248 83.1958C165.248 84.3012 165.552 85.2065 166.146 85.8809C166.742 86.5552 167.481 86.8852 168.367 86.8852C169.193 86.8852 169.875 86.6542 170.441 86.1943V84.7941H169.178C168.54 84.7941 168.134 84.3012 168.134 83.6907C168.134 83.0473 168.54 82.5688 169.178 82.5688H171.179C172.05 82.5688 172.559 83.1484 172.559 84.1362V86.4068C172.559 86.9677 172.413 87.3802 172.109 87.6606C171.035 88.665 169.772 89.1764 168.337 89.1764Z" fill="#202F79"/>
<path fill-rule="evenodd" clip-rule="evenodd" d="M182.251 79.5806V82.9942H184.215C185.872 82.9942 186.71 82.4189 186.71 81.2536C186.71 80.1051 185.939 79.5806 184.215 79.5806H182.251ZM184.282 85.2911H182.251V87.844C182.251 88.6688 181.702 89.1764 180.968 89.1764C180.234 89.1764 179.706 88.6688 179.706 87.844V78.8721C179.706 77.8569 180.303 77.2646 181.326 77.2646H184.658C186.008 77.2646 187.103 77.6031 187.956 78.2947C188.81 78.9736 189.235 79.919 189.235 81.1182C189.235 82.7912 188.315 84.1427 186.879 84.8174L188.723 87.1502C189.218 87.8249 189.083 88.5863 188.467 88.9755C187.904 89.3287 187.135 89.1278 186.64 88.451L184.282 85.2911Z" fill="#202F79"/>
<path fill-rule="evenodd" clip-rule="evenodd" d="M197.459 85.8149C198.085 86.5222 198.925 86.8687 199.996 86.8687C201.033 86.8687 201.877 86.5222 202.484 85.8149C203.109 85.1055 203.423 84.2475 203.423 83.2102C203.423 82.2059 203.094 81.3521 202.453 80.6406C201.81 79.9332 200.999 79.5682 199.996 79.5682C198.942 79.5682 198.102 79.9167 197.459 80.6241C196.83 81.3335 196.52 82.1894 196.52 83.2102C196.52 84.2475 196.83 85.1055 197.459 85.8149ZM195.712 78.9619C196.849 77.8256 198.265 77.2646 199.931 77.2646C201.611 77.2646 203.029 77.8256 204.181 78.9619C205.334 80.0797 205.912 81.4985 205.912 83.2102C205.912 84.9405 205.334 86.3573 204.181 87.4936C203.029 88.6155 201.611 89.1764 199.931 89.1764C198.265 89.1764 196.849 88.6155 195.712 87.4936C194.576 86.3573 194 84.9405 194 83.2102C194 81.4985 194.576 80.0797 195.712 78.9619Z" fill="#202F79"/>
<path fill-rule="evenodd" clip-rule="evenodd" d="M215.457 83.9348C215.457 85.7133 216.267 86.9148 217.822 86.9148C219.394 86.9148 220.188 85.9132 220.188 83.9036V78.5787C220.188 77.7644 220.69 77.2646 221.389 77.2646C222.085 77.2646 222.588 77.7644 222.588 78.5787V83.8182C222.588 87.2959 220.806 89.1764 217.822 89.1764C214.841 89.1764 213.059 87.2959 213.059 83.8182V78.5787C213.059 77.7644 213.563 77.2646 214.258 77.2646C214.954 77.2646 215.457 77.7644 215.457 78.5787V83.9348Z" fill="#202F79"/>
<path fill-rule="evenodd" clip-rule="evenodd" d="M229.897 79.5806V83.0281H231.758C233.484 83.0281 234.355 82.4359 234.355 81.2705C234.355 80.1051 233.519 79.5806 231.758 79.5806H229.897ZM229.897 85.3419V87.844C229.897 88.6688 229.35 89.1764 228.616 89.1764C227.882 89.1764 227.353 88.6688 227.353 87.844V78.8699C227.353 77.8568 227.95 77.2646 228.974 77.2646H232.203C233.621 77.2646 234.748 77.6221 235.601 78.3306C236.456 79.0413 236.882 80.0036 236.882 81.2197C236.882 82.4528 236.456 83.4511 235.584 84.2104C234.713 84.9696 233.586 85.3419 232.203 85.3419H229.897Z" fill="#202F79"/>
<path fill-rule="evenodd" clip-rule="evenodd" d="M246.05 84.2409V86.846H250.187C250.797 86.846 251.176 87.3381 251.176 88.0197C251.176 88.6822 250.797 89.1764 250.187 89.1764H245.317C244.503 89.1764 244.029 88.58 244.029 87.5596V78.8814C244.029 77.859 244.503 77.2646 245.317 77.2646H250.187C250.797 77.2646 251.176 77.7567 251.176 78.4405C251.176 79.1051 250.797 79.595 250.187 79.595H246.05V81.9446H249.968C250.566 81.9446 250.947 82.4366 250.947 83.1012C250.947 83.7318 250.566 84.2409 249.968 84.2409H246.05Z" fill="#202F79"/>
</svg>
