<svg width="122" height="122" viewBox="0 0 122 122" fill="none" xmlns="http://www.w3.org/2000/svg">
<path d="M68.3867 9.29297C68.3867 5.22076 65.0738 1.90625 61 1.90625C56.9262 1.90625 53.6133 5.22076 53.6133 9.29297V24.0664C53.6133 28.1383 56.9262 31.4531 61 31.4531C65.0738 31.4531 68.3867 28.1383 68.3867 24.0664V9.29297ZM1.90628 61C1.90628 65.0719 5.21919 68.3867 9.293 68.3867H24.0664C28.1402 68.3867 31.4532 65.0719 31.4532 61C31.4532 56.9278 28.1402 53.6133 24.0664 53.6133H9.293C5.21919 53.6133 1.90628 56.9278 1.90628 61ZM29.6607 81.8941L19.2154 92.3393C16.3353 95.2175 16.3353 99.9064 19.2154 102.785C20.6111 104.181 22.465 104.949 24.438 104.949C26.4109 104.949 28.2647 104.181 29.6607 102.785L40.106 92.3393C42.9858 89.4611 42.9858 84.7723 40.106 81.894C37.2278 79.0158 32.5389 79.0158 29.6607 81.8941ZM61 90.5469C56.9262 90.5469 53.6133 93.8614 53.6133 97.9336V112.707C53.6133 116.779 56.9262 120.094 61 120.094C65.0738 120.094 68.3867 116.779 68.3867 112.707V97.9336C68.3867 93.8614 65.0738 90.5469 61 90.5469ZM81.8943 92.3393L92.3396 102.785C93.7354 104.181 95.5892 104.949 97.5623 104.949C99.5351 104.949 101.389 104.181 102.785 102.785C105.665 99.9064 105.665 95.2176 102.785 92.3393L92.3396 81.894C89.4614 79.0158 84.7725 79.0158 81.8943 81.894C79.0143 84.7723 79.0143 89.4611 81.8943 92.3393ZM112.707 53.6133H97.9336C93.8598 53.6133 90.5469 56.9278 90.5469 61C90.5469 65.0719 93.8598 68.3867 97.9336 68.3867H112.707C116.781 68.3867 120.094 65.0719 120.094 61C120.094 56.9278 116.781 53.6133 112.707 53.6133ZM102.785 29.6604C105.665 26.7822 105.665 22.0934 102.785 19.2152C99.9067 16.3369 95.2178 16.3369 92.3396 19.2152L81.8943 29.6604C79.0142 32.5387 79.0142 37.2275 81.8943 40.1057C83.29 41.5017 85.1439 42.2698 87.1169 42.2698C89.0897 42.2698 90.9436 41.5017 92.3395 40.1057L102.785 29.6604Z" fill="#202F79"/>
</svg>
