<svg width="253" height="36" viewBox="0 0 253 36" fill="none" xmlns="http://www.w3.org/2000/svg">
<g clip-path="url(#clip0_2236_1593)">
<path fill-rule="evenodd" clip-rule="evenodd" d="M235.482 0H189.061C184.335 0.0821833 179.836 2.02414 176.551 5.39923C173.266 8.77432 171.464 13.3065 171.541 18C171.464 22.6935 173.266 27.2257 176.551 30.6008C179.836 33.9759 184.335 35.9178 189.061 36H235.482C240.208 35.9178 244.708 33.9759 247.993 30.6008C251.278 27.2257 253.08 22.6935 253.002 18C253.08 13.3065 251.278 8.77432 247.993 5.39923C244.708 2.02414 240.208 0.0821833 235.482 0Z" fill="#CCE6F4"/>
<path d="M130.924 0.466553H123.545V35.3419H130.924V0.466553Z" fill="#202F79"/>
<path fill-rule="evenodd" clip-rule="evenodd" d="M235.022 13.271C234.239 13.2455 233.473 13.5011 232.865 13.991C232.248 14.5331 231.839 15.2694 231.705 16.0761H238.19C238.138 15.2888 237.776 14.5534 237.183 14.0283C236.59 13.5031 235.813 13.2302 235.019 13.2681M235.019 9.80062C236.486 9.76296 237.936 10.1107 239.224 10.8086C240.375 11.4495 241.312 12.4111 241.92 13.5749C242.549 14.7951 242.867 16.1497 242.847 17.5205C242.866 18.0819 242.797 18.6428 242.645 19.1837H231.573C231.664 20.0935 232.093 20.937 232.776 21.5496C233.5 22.1542 234.425 22.4666 235.37 22.4251C236.056 22.4411 236.734 22.283 237.341 21.9657C237.886 21.6742 238.338 21.2367 238.646 20.7029L242.126 22.3373C241.61 23.5213 240.706 24.4972 239.561 25.1064C238.24 25.8011 236.767 26.1606 235.272 26.1531C233.777 26.1456 232.308 25.7711 230.994 25.0632C229.764 24.3626 228.755 23.3341 228.081 22.0939C227.391 20.8212 227.037 19.3952 227.053 17.9496C227.034 16.4971 227.394 15.0644 228.097 13.7909C228.767 12.5739 229.76 11.562 230.967 10.8648C232.199 10.1529 233.602 9.78617 235.027 9.80349" fill="#202F79"/>
<path d="M7.63393 0.466553H0V35.3419H7.63393V0.466553Z" fill="#202F79"/>
<path fill-rule="evenodd" clip-rule="evenodd" d="M138.012 0.466553H161.605V6.78671H145.311V14.6981H160.663V21.0182H145.311V29.0218H161.605V35.3419H138.012V0.466553Z" fill="#202F79"/>
<path fill-rule="evenodd" clip-rule="evenodd" d="M15.1309 0.466553H20.7856L36.764 21.2026V0.466553H44.1355V35.3419H38.4285L22.5024 14.135V35.3419H15.1309V0.466553Z" fill="#202F79"/>
<path fill-rule="evenodd" clip-rule="evenodd" d="M87.2988 0.468018H95.3909L103.722 25.9819L112.049 0.468018H120.141L108.004 35.3434H99.4348L87.2988 0.468018Z" fill="#202F79"/>
<path fill-rule="evenodd" clip-rule="evenodd" d="M187.782 19.7236H181.686V16.1236H187.782V10.2715H191.394V16.1236H197.461V19.7236H191.394V25.956H187.782V19.7236Z" fill="#202F79"/>
<path fill-rule="evenodd" clip-rule="evenodd" d="M200.639 10.1477H204.684V12.0672C205.052 11.318 205.666 10.7152 206.424 10.358C207.265 9.96901 208.184 9.77735 209.111 9.7978C210.098 9.78527 211.074 10.0069 211.957 10.4444C212.761 10.8267 213.438 11.4293 213.908 12.181C214.449 11.4032 215.182 10.776 216.036 10.3588C216.891 9.94172 217.839 9.74858 218.789 9.7978C219.845 9.77725 220.887 10.0346 221.81 10.5437C222.682 11.0375 223.398 11.7637 223.876 12.6404C224.39 13.5933 224.648 14.6614 224.627 15.7421V25.8221H220.293V16.6594C220.336 15.8652 220.073 15.0846 219.557 14.4764C219.017 13.9615 218.297 13.674 217.548 13.674C216.8 13.674 216.08 13.9615 215.54 14.4764C215.024 15.0843 214.76 15.8651 214.804 16.6594V25.8221H210.46V16.6594C210.503 15.8651 210.24 15.0843 209.723 14.4764C209.183 13.9615 208.463 13.674 207.715 13.674C206.966 13.674 206.247 13.9615 205.707 14.4764C205.189 15.0839 204.925 15.8649 204.969 16.6594V25.8221H200.635L200.639 10.1477Z" fill="#202F79"/>
<path fill-rule="evenodd" clip-rule="evenodd" d="M58.0126 33.6356C55.229 32.1202 52.9141 29.8799 51.3168 27.1556C49.6869 24.3713 48.8476 21.2003 48.8881 17.9799C48.848 14.7596 49.6873 11.5886 51.3168 8.80421C52.9108 6.08252 55.2271 3.84796 58.0126 2.34437C60.9392 0.807989 64.1994 0.00488281 67.5097 0.00488281C70.82 0.00488281 74.0802 0.807989 77.0068 2.34437C79.7918 3.84811 82.1075 6.08266 83.7011 8.80421C85.3294 11.5891 86.1681 14.7598 86.1284 17.9799C86.1686 21.2 85.3298 24.3708 83.7011 27.1556C82.1043 29.8798 79.7898 32.1201 77.0068 33.6356C74.0846 35.186 70.8227 35.9972 67.5097 35.9972C64.1967 35.9972 60.9347 35.186 58.0126 33.6356ZM57.6878 23.9962C58.6453 25.7017 60.0549 27.114 61.7635 28.08C63.5219 29.0496 65.5 29.5584 67.5111 29.5584C69.5223 29.5584 71.5003 29.0496 73.2587 28.08C74.9671 27.1137 76.3766 25.7014 77.3345 23.9962C78.344 22.1798 78.8555 20.132 78.8178 18.0576C78.855 15.9833 78.3435 13.9356 77.3345 12.1191C76.3847 10.4216 74.9825 9.01667 73.2819 8.05829C71.5098 7.10422 69.5261 6.60453 67.5104 6.60453C65.4947 6.60453 63.5109 7.10422 61.7389 8.05829C60.0388 9.01694 58.6373 10.4219 57.6878 12.1191C56.6787 13.9356 56.1672 15.9833 56.2045 18.0576C56.1667 20.132 56.6783 22.1799 57.6878 23.9962Z" fill="#202F79"/>
</g>
<defs>
<clipPath id="clip0_2236_1593">
<rect width="253" height="36" fill="white"/>
</clipPath>
</defs>
</svg>
