<svg width="253" height="37" viewBox="0 0 253 37" fill="none" xmlns="http://www.w3.org/2000/svg">
<g clip-path="url(#clip0_866_4076)">
<path fill-rule="evenodd" clip-rule="evenodd" d="M235.481 0H189.06C184.334 0.0827505 179.835 2.03811 176.55 5.4365C173.265 8.83488 171.463 13.3983 171.54 18.1242C171.463 22.8502 173.265 27.4136 176.55 30.812C179.835 34.2104 184.334 36.1657 189.06 36.2485H235.481C240.207 36.1657 244.707 34.2104 247.992 30.812C251.277 27.4136 253.079 22.8502 253.001 18.1242C253.079 13.3983 251.277 8.83488 247.992 5.4365C244.707 2.03811 240.207 0.0827505 235.481 0Z" fill="#CCE6F4"/>
<path d="M130.924 0.469727H123.545V35.5858H130.924V0.469727Z" fill="white"/>
<path fill-rule="evenodd" clip-rule="evenodd" d="M235.022 13.3629C234.239 13.3372 233.473 13.5945 232.865 14.0878C232.248 14.6336 231.839 15.375 231.705 16.1873H238.19C238.138 15.3946 237.776 14.6541 237.183 14.1253C236.59 13.5966 235.813 13.3217 235.019 13.36M235.019 9.86851C236.486 9.83059 237.936 10.1807 239.224 10.8835C240.375 11.5287 241.312 12.497 241.92 13.6688C242.549 14.8975 242.867 16.2615 242.847 17.6416C242.866 18.207 242.797 18.7717 242.645 19.3163H231.573C231.664 20.2324 232.093 21.0818 232.776 21.6986C233.5 22.3073 234.425 22.622 235.37 22.5801C236.056 22.5962 236.734 22.437 237.341 22.1176C237.886 21.8241 238.338 21.3835 238.646 20.846L242.126 22.4917C241.61 23.6839 240.706 24.6665 239.561 25.2799C238.24 25.9794 236.767 26.3415 235.272 26.3339C233.777 26.3263 232.308 25.9493 230.994 25.2364C229.764 24.531 228.755 23.4954 228.081 22.2466C227.391 20.9652 227.037 19.5293 227.053 18.0737C227.034 16.6112 227.394 15.1686 228.097 13.8863C228.767 12.6609 229.76 11.6421 230.967 10.94C232.199 10.2233 233.602 9.85396 235.027 9.8714" fill="#202F79"/>
<path d="M7.63393 0.469727H0V35.5858H7.63393V0.469727Z" fill="white"/>
<path fill-rule="evenodd" clip-rule="evenodd" d="M138.011 0.469727H161.604V6.83351H145.31V14.7995H160.662V21.1633H145.31V29.222H161.604V35.5858H138.011V0.469727Z" fill="white"/>
<path fill-rule="evenodd" clip-rule="evenodd" d="M15.1318 0.469727H20.7866L36.7649 21.3489V0.469727H44.1364V35.5858H38.4295L22.5033 14.2326V35.5858H15.1318V0.469727Z" fill="white"/>
<path fill-rule="evenodd" clip-rule="evenodd" d="M87.2998 0.471191H95.3919L103.723 26.1612L112.05 0.471191H120.142L108.005 35.5873H99.4358L87.2998 0.471191Z" fill="white"/>
<path fill-rule="evenodd" clip-rule="evenodd" d="M187.782 19.8597H181.685V16.2348H187.782V10.3423H191.393V16.2348H197.46V19.8597H191.393V26.135H187.782V19.8597Z" fill="#202F79"/>
<path fill-rule="evenodd" clip-rule="evenodd" d="M200.638 10.2178H204.683V12.1506C205.051 11.3962 205.665 10.7892 206.423 10.4295C207.264 10.0379 208.183 9.84489 209.11 9.86548C210.097 9.85287 211.073 10.0761 211.956 10.5165C212.76 10.9015 213.437 11.5082 213.907 12.2651C214.448 11.482 215.181 10.8504 216.036 10.4304C216.89 10.0104 217.838 9.81592 218.788 9.86548C219.844 9.84479 220.886 10.1039 221.809 10.6165C222.681 11.1137 223.397 11.845 223.875 12.7277C224.389 13.6872 224.647 14.7626 224.626 15.8508V26.0004H220.292V16.7744C220.335 15.9748 220.072 15.1888 219.556 14.5763C219.016 14.058 218.296 13.7685 217.547 13.7685C216.799 13.7685 216.079 14.058 215.539 14.5763C215.023 15.1884 214.759 15.9747 214.803 16.7744V26.0004H210.459V16.7744C210.502 15.9747 210.239 15.1884 209.722 14.5763C209.182 14.058 208.462 13.7685 207.714 13.7685C206.965 13.7685 206.246 14.058 205.706 14.5763C205.188 15.1881 204.924 15.9744 204.968 16.7744V26.0004H200.634L200.638 10.2178Z" fill="#202F79"/>
<path fill-rule="evenodd" clip-rule="evenodd" d="M58.0136 33.8677C55.23 32.3419 52.9151 30.0861 51.3177 27.343C49.6878 24.5395 48.8485 21.3466 48.8891 18.104C48.849 14.8614 49.6882 11.6686 51.3177 8.86495C52.9118 6.12447 55.228 3.87448 58.0136 2.36052C60.9402 0.813532 64.2003 0.00488281 67.5107 0.00488281C70.821 0.00488281 74.0811 0.813532 77.0077 2.36052C79.7928 3.87464 82.1085 6.12462 83.7021 8.86495C85.3304 11.6691 86.1691 14.8617 86.1293 18.104C86.1695 21.3463 85.3308 24.539 83.7021 27.343C82.1052 30.086 79.7908 32.3417 77.0077 33.8677C74.0856 35.4289 70.8237 36.2456 67.5107 36.2456C64.1976 36.2456 60.9357 35.4289 58.0136 33.8677ZM57.6888 24.1618C58.6463 25.879 60.0558 27.3012 61.7645 28.2738C63.5229 29.2501 65.5009 29.7624 67.5121 29.7624C69.5233 29.7624 71.5013 29.2501 73.2597 28.2738C74.9681 27.3008 76.3776 25.8788 77.3354 24.1618C78.3449 22.3329 78.8564 20.2709 78.8188 18.1823C78.856 16.0936 78.3445 14.0318 77.3354 12.2027C76.3856 10.4935 74.9835 9.07888 73.2828 8.11388C71.5108 7.15322 69.527 6.65009 67.5114 6.65009C65.4957 6.65009 63.5119 7.15322 61.7399 8.11388C60.0398 9.07915 58.6383 10.4938 57.6888 12.2027C56.6797 14.0318 56.1682 16.0936 56.2055 18.1823C56.1677 20.2709 56.6792 22.3329 57.6888 24.1618Z" fill="white"/>
</g>
<defs>
<clipPath id="clip0_866_4076">
<rect width="253" height="36.2485" fill="white"/>
</clipPath>
</defs>
</svg>
