<svg width="618" height="480" viewBox="0 0 618 480" fill="none" xmlns="http://www.w3.org/2000/svg">
<g clip-path="url(#clip0_1258_2065)">
<path d="M52.4088 394.105C51.1894 390.368 49.9833 386.494 48.8223 382.593L51.6825 381.742C52.8356 385.617 54.0337 389.465 55.2451 393.178L52.4088 394.105ZM563.885 389.277L560.924 388.912C561.414 384.934 561.883 380.924 562.31 377.002L565.276 377.328C564.847 381.266 564.378 385.286 563.885 389.28V389.277ZM45.53 370.998C44.4856 367.142 43.473 363.217 42.5214 359.327L45.4187 358.617C46.365 362.483 47.3723 366.387 48.4088 370.217L45.53 370.998ZM566.498 365.354L563.529 365.074C563.906 361.077 564.256 357.06 564.569 353.129L567.543 353.365C567.23 357.311 566.88 361.345 566.501 365.354H566.498ZM39.7964 347.586C38.9349 343.659 38.1158 339.689 37.3603 335.783L40.2894 335.216C41.0396 339.096 41.8534 343.044 42.7096 346.945L39.7964 347.584V347.586ZM568.396 341.36L565.419 341.172C565.671 337.181 565.894 333.153 566.077 329.204L569.056 329.342C568.871 333.309 568.651 337.35 568.396 341.36ZM35.2211 323.92C34.5584 319.945 33.9435 315.936 33.3948 312.005L36.3477 311.595C36.8911 315.499 37.5008 319.482 38.1609 323.43L35.2185 323.92H35.2211ZM569.512 317.313L566.53 317.225C566.647 313.216 566.726 309.185 566.769 305.244L569.751 305.276C569.708 309.235 569.629 313.285 569.512 317.313ZM31.8997 300.043C31.4544 296.028 31.0674 291.989 30.7493 288.038L33.7235 287.797C34.0389 291.716 34.4233 295.726 34.8659 299.712L31.9024 300.04L31.8997 300.043ZM566.782 293.263C566.747 289.251 566.671 285.22 566.557 281.284L569.539 281.197C569.655 285.153 569.732 289.203 569.767 293.236L566.785 293.263H566.782ZM29.9673 276.003C29.7685 271.965 29.6386 267.91 29.5776 263.951L32.5598 263.906C32.6207 267.83 32.7506 271.853 32.9468 275.86L29.9673 276.006V276.003ZM566.077 269.316C565.873 265.309 565.621 261.286 565.329 257.364L568.303 257.142C568.598 261.088 568.849 265.132 569.056 269.163L566.077 269.316ZM32.5863 251.945L29.6041 251.885C29.6863 247.835 29.848 243.778 30.0813 239.829L33.0581 240.004C32.8275 243.916 32.6684 247.933 32.5863 251.945ZM564.29 245.436C563.893 241.429 563.439 237.427 562.949 233.539L565.907 233.166C566.403 237.077 566.856 241.106 567.256 245.139L564.288 245.436H564.29ZM34.0018 228.092L31.0329 227.792C31.4385 223.759 31.9315 219.725 32.5014 215.806L35.4544 216.235C34.8924 220.109 34.4021 224.098 34.0018 228.089V228.092ZM561.279 221.69C560.659 217.71 559.977 213.743 559.254 209.9L562.185 209.349C562.914 213.221 563.601 217.22 564.227 221.232L561.279 221.693V221.69ZM208.511 221.269C204.365 220.615 201.367 218.73 197.216 215.469L199.1 213.157C202.737 216.004 205.367 217.713 208.829 218.303L208.511 221.269ZM218.859 214.172L216.203 212.816C217.568 210.141 218.774 206.43 219.79 201.785L222.703 202.423C221.619 207.387 220.36 211.232 218.857 214.174L218.859 214.172ZM188.46 206.912C186.085 204.267 183.545 201.218 180.696 197.601L183.039 195.755C185.846 199.322 188.346 202.32 190.679 204.918L188.46 206.912ZM37.4451 204.465L34.516 203.896C35.2874 199.913 36.1622 195.943 37.1138 192.095L40.0085 192.81C39.0701 196.61 38.2059 200.533 37.4425 204.465H37.4451ZM556.841 198.189C555.959 194.248 555.005 190.342 554.01 186.578L556.895 185.815C557.899 189.616 558.861 193.559 559.752 197.537L556.841 198.189ZM224.709 190.413L221.751 190.032C222.21 186.47 222.621 182.571 223.005 178.109L225.977 178.366C225.587 182.868 225.171 186.809 224.707 190.41L224.709 190.413ZM173.39 187.987C170.965 184.711 168.452 181.25 166.284 178.262L168.698 176.509C170.862 179.491 173.372 182.947 175.787 186.21L173.39 187.984V187.987ZM391.767 187.741C389.445 187.741 387.165 187.047 384.994 185.678L386.585 183.154C389.848 185.214 393.058 185.22 396.522 183.575L397.805 186.268C395.756 187.246 393.726 187.741 391.767 187.741ZM43.1814 181.313L40.3292 180.442C41.5141 176.565 42.8156 172.709 44.194 168.982L46.9906 170.018C45.6308 173.691 44.3504 177.492 43.1814 181.313ZM407.558 178.469L405.365 176.445C407.626 173.996 410.052 170.974 412.777 167.205L415.194 168.956C412.398 172.82 409.901 175.932 407.558 178.469ZM376.512 176.416C374.582 173.437 372.668 169.93 370.664 165.693L373.36 164.417C375.308 168.532 377.158 171.927 379.014 174.793L376.512 176.416ZM550.713 175.095C549.512 171.228 548.229 167.422 546.901 163.784L549.703 162.761C551.047 166.445 552.343 170.296 553.56 174.208L550.71 175.092L550.713 175.095ZM159.214 168.532C156.484 164.801 154.212 161.739 152.057 158.895L154.435 157.094C156.598 159.951 158.883 163.026 161.621 166.771L159.214 168.532ZM226.875 166.315L223.898 166.122C224.124 162.626 224.354 158.699 224.601 154.112L227.58 154.273C227.334 158.871 227.103 162.809 226.875 166.315ZM51.4625 158.972L48.7348 157.766C50.373 154.056 52.1172 150.415 53.9701 146.853L56.6156 148.232C54.7918 151.736 53.0741 155.322 51.4625 158.972ZM422.028 158.972L419.536 157.332C421.657 154.109 423.847 150.693 426.063 147.244L428.573 148.857C426.352 152.316 424.159 155.735 422.031 158.972H422.028ZM365.861 154.559C364.509 151.169 363.115 147.472 361.593 143.253L364.398 142.242C365.909 146.429 367.292 150.097 368.631 153.455L365.861 154.559ZM542.514 152.697C540.91 148.961 539.214 145.332 537.472 141.911L540.131 140.557C541.902 144.037 543.627 147.726 545.255 151.522L542.514 152.697ZM144.693 149.44C141.987 146.079 139.468 143.089 136.99 140.295L139.222 138.314C141.729 141.143 144.279 144.167 147.015 147.565L144.693 149.437V149.44ZM228.201 142.236L225.221 142.085C225.423 138.1 225.621 134.111 225.833 130.054L228.813 130.21C228.601 134.265 228.399 138.253 228.201 142.236ZM435.11 138.778L432.621 137.133C435.112 133.362 437.342 130.099 439.436 127.159L441.864 128.891C439.791 131.802 437.58 135.038 435.11 138.78V138.778ZM62.5321 137.935L60.0192 136.331C62.3625 132.66 64.78 129.341 67.2028 126.473L69.4825 128.399C67.1445 131.166 64.8065 134.376 62.5348 137.935H62.5321ZM357.612 131.865C356.244 127.856 354.902 123.843 353.768 120.448L356.596 119.505C357.728 122.895 359.067 126.902 360.432 130.904L357.609 131.868L357.612 131.865ZM128.791 131.656C125.743 128.687 122.745 126.065 119.882 123.859L121.7 121.494C124.656 123.769 127.741 126.468 130.872 129.516L128.791 131.653V131.656ZM531.683 131.529C529.546 128.041 527.304 124.741 525.022 121.722L527.399 119.921C529.74 123.017 532.035 126.396 534.225 129.969L531.683 131.529ZM77.8483 120.281L76.0405 117.908C79.6031 115.191 83.3089 113.231 87.0598 112.082L87.9319 114.934C84.523 115.978 81.13 117.776 77.8483 120.279V120.281ZM449.063 119.368L446.747 117.49C449.543 114.036 452.194 111.068 454.85 108.409L456.96 110.517C454.378 113.102 451.796 115.996 449.063 119.368ZM229.486 118.194L226.509 118.017C226.766 113.679 227.024 109.741 227.294 105.977L230.268 106.189C230 109.942 229.743 113.87 229.486 118.194ZM110.023 117.569C106.302 115.716 102.641 114.534 99.142 114.055L99.5476 111.099C103.367 111.624 107.341 112.9 111.352 114.9L110.023 117.572V117.569ZM517.353 112.747C514.482 109.804 511.508 107.206 508.515 105.027L510.273 102.614C513.401 104.892 516.499 107.601 519.489 110.662L517.355 112.747H517.353ZM349.969 109.031C348.485 104.592 347.263 100.972 346.12 97.6404L348.941 96.6737C350.086 100.013 351.311 103.639 352.798 108.086L349.969 109.031ZM465.888 102.9L464.178 100.456C467.847 97.8893 471.553 95.9878 475.192 94.804L476.112 97.6404C472.753 98.7315 469.315 100.501 465.888 102.897V102.9ZM498.434 99.2453C494.739 97.6854 491.001 96.7214 487.32 96.3771L487.598 93.4056C491.582 93.779 495.619 94.8172 499.595 96.4936L498.437 99.2426L498.434 99.2453ZM231.222 94.2107L228.251 93.9459C228.622 89.7588 229.028 85.7174 229.452 81.9302L232.415 82.2639C231.991 86.0272 231.591 90.0475 231.22 94.2107H231.222ZM342.152 86.2921C340.71 82.2692 339.353 78.5906 337.998 75.0471L340.784 73.9824C342.144 77.5445 343.509 81.2416 344.959 85.2857L342.152 86.2921ZM233.937 70.3674L230.984 69.941C231.588 65.7645 232.251 61.7469 232.956 57.9994L235.888 58.5503C235.191 62.2554 234.536 66.2306 233.937 70.3647V70.3674ZM333.569 63.9053C331.965 60.0493 330.351 56.3601 328.766 52.9384L331.472 51.6857C333.073 55.1418 334.704 58.8681 336.323 62.7612L333.569 63.9053ZM238.419 46.8763L235.525 46.1532C236.564 41.9873 237.712 38.0625 238.934 34.4898L241.757 35.4538C240.561 38.947 239.44 42.7898 238.419 46.8763ZM323.47 42.231C321.508 38.5365 319.504 35.0645 317.513 31.9182L320.034 30.3239C322.065 33.5337 324.106 37.0693 326.104 40.8327L323.47 42.231ZM246.236 24.5213L243.562 23.1998C245.521 19.2298 247.692 15.7207 250.016 12.7678L252.36 14.6137C250.162 17.4025 248.103 20.7368 246.236 24.5213ZM310.677 22.241C308.071 18.9729 305.381 16.0783 302.682 13.6365L304.683 11.4224C307.501 13.9728 310.303 16.9867 313.01 20.3792L310.677 22.241ZM260.683 6.8831L259.074 4.36979C262.608 2.10807 266.502 0.635574 270.645 -0.00268555L271.098 2.94496C267.366 3.51966 263.861 4.84385 260.681 6.88045L260.683 6.8831ZM293.272 6.8831C289.797 5.01069 286.178 3.72888 282.515 3.07473L283.037 0.137678C287.013 0.844795 290.934 2.23255 294.687 4.25591L293.272 6.8831Z" fill="#B3D2FF"/>
<path d="M109.249 410.951C109.249 410.951 44.9253 227.485 97.204 184.121C132.147 155.134 160.865 207.747 205.072 173.943C244.428 143.847 231.917 52.2869 294.687 39.6303C365.259 25.4006 380.8 196.176 438.714 172.833C508.992 144.509 578.898 202.008 518.487 411.322L109.252 410.951H109.249Z" fill="#BAD2F4"/>
<path d="M582.787 346.699C558.034 342.864 562.074 377.5 526.792 377.5C494.532 377.5 484.213 245.6 460.743 283.305C340.416 476.599 410.288 201.102 314.595 197.601C271.326 196.017 242.491 244.228 231.858 329.588C216.447 406.756 180.701 270.73 143.919 283.379C120.542 291.417 123.219 377.5 90.9588 377.5C55.677 377.5 59.7141 342.864 34.9638 346.699C8.31283 350.825 0.352539 412.13 0.352539 412.13H617.398C617.398 412.13 609.438 350.825 582.79 346.699H582.787Z" fill="#C6DCF7"/>
<path d="M560.868 384.19C538.098 382.553 541.811 397.341 509.353 397.341C479.674 397.341 480.491 364.194 460.631 357.15C424.058 344.178 393.909 409.834 379.73 376.883C352.8 289.447 274.258 245.6 238.021 376.883C223.842 409.834 190.684 351.037 157.12 357.15C136.46 360.913 138.077 397.341 108.398 397.341C75.9396 397.341 79.656 382.553 56.8832 384.19C32.3661 385.953 25.042 412.13 25.042 412.13H592.709C592.709 412.13 585.385 385.953 560.868 384.19Z" fill="#D2E5F7"/>
<path d="M0.352702 412.13C0.352702 412.13 -3.51744 427.88 14.4177 431.823C38.948 437.215 182.941 451.387 147.961 462.155C128.216 468.233 158.042 476.488 254.223 479.526C350.404 482.566 515.444 470.656 459.945 453.037C404.445 435.417 631.174 448.781 617.401 412.13H0.352702Z" fill="#BAD2F4"/>
<path d="M413.113 56.1721V80.4233C412.766 82.4123 411.027 83.9245 408.935 83.9245C406.844 83.9245 405.105 82.4123 404.758 80.4233V56.1721C404.758 53.8654 406.627 51.9983 408.935 51.9983C411.244 51.9983 413.113 53.8654 413.113 56.1721Z" fill="#8FB3F2"/>
<path d="M408.936 95.8422C411.278 95.8422 413.177 93.9451 413.177 91.6048C413.177 89.2646 411.278 87.3674 408.936 87.3674C406.593 87.3674 404.694 89.2646 404.694 91.6048C404.694 93.9451 406.593 95.8422 408.936 95.8422Z" fill="#8FB3F2"/>
<path d="M111.182 203.144C114.996 199.208 117.35 193.856 117.35 187.958C117.35 175.911 107.539 166.109 95.481 166.109C89.5803 166.109 84.2204 168.461 80.2814 172.272C80.1913 172.346 80.1011 172.425 80.0163 172.51C79.9315 172.595 79.852 172.685 79.7777 172.775C75.9633 176.71 73.6094 182.063 73.6094 187.961C73.6094 200.008 83.4199 209.81 95.4783 209.81C101.379 209.81 106.739 207.458 110.678 203.647C110.768 203.573 110.858 203.494 110.943 203.409C111.028 203.324 111.107 203.234 111.182 203.144ZM110.723 187.958C110.723 190.961 109.846 193.761 108.337 196.12L87.3086 175.111C89.6731 173.604 92.475 172.727 95.4783 172.727C103.884 172.727 110.72 179.557 110.72 187.955L110.723 187.958ZM80.239 187.958C80.239 184.955 81.1164 182.156 82.6247 179.796L103.653 200.805C101.289 202.312 98.4869 203.189 95.4836 203.189C87.078 203.189 80.2416 196.359 80.2416 187.961L80.239 187.958Z" fill="#8FB3F2"/>
<path d="M518.871 188.048C522.683 184.113 525.037 178.76 525.037 172.862C525.037 160.815 515.227 151.013 503.168 151.013C497.268 151.013 491.908 153.365 487.969 157.173C487.876 157.247 487.788 157.327 487.704 157.412C487.619 157.496 487.539 157.586 487.465 157.676C483.653 161.612 481.299 166.964 481.299 172.862C481.299 184.91 491.11 194.711 503.168 194.711C509.069 194.711 514.429 192.36 518.368 188.551C518.461 188.477 518.548 188.398 518.633 188.313C518.718 188.228 518.797 188.138 518.871 188.048ZM518.41 172.862C518.41 175.866 517.533 178.665 516.025 181.025L494.996 160.015C497.36 158.508 500.162 157.631 503.166 157.631C511.571 157.631 518.408 164.462 518.408 172.86L518.41 172.862ZM487.926 172.862C487.926 169.859 488.804 167.06 490.312 164.7L511.341 185.71C508.976 187.216 506.174 188.093 503.171 188.093C494.765 188.093 487.929 181.263 487.929 172.865L487.926 172.862Z" fill="#F49F9F"/>
<path d="M180.091 86.6603L191.511 75.2511C193.144 73.6197 193.144 70.9766 191.511 69.3478C189.878 67.7164 187.232 67.7164 185.602 69.3478L174.183 80.757L162.763 69.3478C161.13 67.7164 158.485 67.7164 156.855 69.3478C155.222 70.9792 155.222 73.6223 156.855 75.2511L168.274 86.6603L156.855 98.0695C155.222 99.7009 155.222 102.344 156.855 103.973C157.671 104.788 158.739 105.196 159.81 105.196C160.881 105.196 161.949 104.788 162.766 103.973L174.185 92.5635L185.605 103.973C186.421 104.788 187.49 105.196 188.561 105.196C189.631 105.196 190.7 104.788 191.516 103.973C193.149 102.341 193.149 99.6982 191.516 98.0695L180.097 86.6603H180.091Z" fill="#FFD2D2"/>
<path d="M392.337 183.72H178.527V404.126H392.337V183.72Z" fill="#EDEDED"/>
<path d="M178.551 183.72H392.331V175.855C392.331 175.855 392.506 172.181 389.967 169.983C387.427 167.785 385.161 167.796 384.636 167.788C384.111 167.777 186.636 167.777 186.636 167.777C186.636 167.777 183.765 167.512 180.953 170.11C178.101 172.745 178.549 176.834 178.549 176.834V183.723L178.551 183.72Z" fill="#142D3F"/>
<path d="M192.9 174.059C192.9 175.245 191.938 176.209 190.748 176.209C189.557 176.209 188.595 175.248 188.595 174.059C188.595 172.87 189.557 171.908 190.748 171.908C191.938 171.908 192.9 172.87 192.9 174.059Z" fill="#E6332A"/>
<path d="M205.226 174.059C205.226 175.245 204.264 176.209 203.073 176.209C201.883 176.209 200.921 175.248 200.921 174.059C200.921 172.87 201.883 171.908 203.073 171.908C204.264 171.908 205.226 172.87 205.226 174.059Z" fill="#74C8D6"/>
<path d="M217.552 174.059C217.552 175.245 216.59 176.209 215.4 176.209C214.209 176.209 213.247 175.248 213.247 174.059C213.247 172.87 214.209 171.908 215.4 171.908C216.59 171.908 217.552 172.87 217.552 174.059Z" fill="#FADD74"/>
<path d="M415.905 161.146H202.096V381.552H415.905V161.146Z" fill="#F6F6F6"/>
<path d="M202.122 161.146H415.902V153.28C415.902 153.28 416.077 149.607 413.538 147.408C410.998 145.21 408.732 145.221 408.207 145.213C407.685 145.202 210.207 145.202 210.207 145.202C210.207 145.202 207.336 144.937 204.524 147.536C201.671 150.171 202.119 154.26 202.119 154.26V161.148L202.122 161.146Z" fill="#162F42"/>
<path d="M216.471 151.484C216.471 152.671 215.506 153.635 214.318 153.635C213.131 153.635 212.166 152.673 212.166 151.484C212.166 150.295 213.131 149.334 214.318 149.334C215.506 149.334 216.471 150.295 216.471 151.484Z" fill="#E6332A"/>
<path d="M226.644 153.635C227.833 153.635 228.797 152.672 228.797 151.484C228.797 150.297 227.833 149.334 226.644 149.334C225.455 149.334 224.492 150.297 224.492 151.484C224.492 152.672 225.455 153.635 226.644 153.635Z" fill="#74C8D6"/>
<path d="M238.97 153.635C240.159 153.635 241.123 152.672 241.123 151.484C241.123 150.297 240.159 149.334 238.97 149.334C237.782 149.334 236.818 150.297 236.818 151.484C236.818 152.672 237.782 153.635 238.97 153.635Z" fill="#FADD74"/>
<path d="M439.476 138.571H225.667V358.977H439.476V138.571Z" fill="white"/>
<path d="M225.693 138.571H439.473V130.705C439.473 130.705 439.648 127.032 437.108 124.834C434.569 122.635 432.302 122.646 431.778 122.638C431.255 122.627 233.778 122.627 233.778 122.627C233.778 122.627 230.907 122.363 228.094 124.961C225.242 127.596 225.69 131.685 225.69 131.685V138.573L225.693 138.571Z" fill="#1B364F"/>
<path d="M240.039 128.909C240.039 130.096 239.074 131.06 237.886 131.06C236.699 131.06 235.734 130.099 235.734 128.909C235.734 127.72 236.699 126.759 237.886 126.759C239.074 126.759 240.039 127.72 240.039 128.909Z" fill="#E6332A"/>
<path d="M250.212 131.06C251.401 131.06 252.365 130.097 252.365 128.909C252.365 127.722 251.401 126.759 250.212 126.759C249.024 126.759 248.06 127.722 248.06 128.909C248.06 130.097 249.024 131.06 250.212 131.06Z" fill="#74C8D6"/>
<path d="M262.539 131.06C263.727 131.06 264.691 130.097 264.691 128.909C264.691 127.722 263.727 126.759 262.539 126.759C261.35 126.759 260.386 127.722 260.386 128.909C260.386 130.097 261.35 131.06 262.539 131.06Z" fill="#FADD74"/>
<path d="M332.569 328.083C376.947 328.083 412.922 292.141 412.922 247.803C412.922 203.466 376.947 167.523 332.569 167.523C288.192 167.523 252.216 203.466 252.216 247.803C252.216 292.141 288.192 328.083 332.569 328.083Z" fill="#EB5648"/>
<path d="M332.569 321.992C373.58 321.992 406.826 288.777 406.826 247.803C406.826 206.83 373.58 173.614 332.569 173.614C291.559 173.614 258.313 206.83 258.313 247.803C258.313 288.777 291.559 321.992 332.569 321.992Z" fill="white"/>
<path d="M332.569 316.711C370.661 316.711 401.54 285.86 401.54 247.803C401.54 209.746 370.661 178.895 332.569 178.895C294.478 178.895 263.599 209.746 263.599 247.803C263.599 285.86 294.478 316.711 332.569 316.711Z" fill="#EB5648"/>
<path d="M367.637 243.179C364.671 241.587 360.973 242.7 359.38 245.666L353.654 256.323C352.716 254.601 351.597 252.994 350.322 251.524V212.537C350.322 209.733 348.048 207.46 345.24 207.46C342.433 207.46 340.159 209.733 340.159 212.537V244.188C339.372 243.862 338.566 243.571 337.741 243.317V204.145C337.741 201.34 335.467 199.068 332.66 199.068C329.853 199.068 327.578 201.34 327.578 204.145V242.202C326.762 242.265 325.956 242.366 325.161 242.501V210.371C325.161 207.566 322.886 205.294 320.079 205.294C317.272 205.294 314.998 207.566 314.998 210.371V246.434C314.16 246.974 313.354 247.559 312.58 248.184V223.165C312.58 220.361 310.306 218.088 307.499 218.088C304.691 218.088 302.417 220.361 302.417 223.165V267.706C302.417 268.008 302.444 268.302 302.494 268.588C302.489 268.834 302.483 269.08 302.483 269.329C302.483 284.359 314.677 296.541 329.72 296.541C341.012 296.541 350.701 289.674 354.828 279.893L370.121 251.431C371.714 248.468 370.6 244.773 367.631 243.182L367.637 243.179Z" fill="white"/>
</g>
<defs>
<clipPath id="clip0_1258_2065">
<rect width="618" height="480" fill="white"/>
</clipPath>
</defs>
</svg>
