<svg width="132" height="101" viewBox="0 0 132 101" fill="none" xmlns="http://www.w3.org/2000/svg">
<path d="M127.286 100.179H4.71429C3.46398 100.179 2.26488 99.6819 1.38078 98.7978C0.496682 97.9137 0 96.7146 0 95.4643V77.2907C0 76.0404 0.496682 74.8413 1.38078 73.9572C2.26488 73.0731 3.46398 72.5764 4.71429 72.5764C5.96459 72.5764 7.16369 73.0731 8.04779 73.9572C8.93189 74.8413 9.42857 76.0404 9.42857 77.2907V90.75H122.571V21.2143H72.8593C71.8096 21.2163 70.7893 20.8679 69.96 20.2243L56.1 9.42858H9.42857V48.1093C9.42857 49.3596 8.93189 50.5587 8.04779 51.4428C7.16369 52.3269 5.96459 52.8236 4.71429 52.8236C3.46398 52.8236 2.26488 52.3269 1.38078 51.4428C0.496682 50.5587 0 49.3596 0 48.1093V4.71429C0 3.46399 0.496682 2.26489 1.38078 1.38079C2.26488 0.496692 3.46398 8.43367e-06 4.71429 8.43367e-06H57.7029C58.7526 -0.00197639 59.7729 0.34643 60.6021 0.990009L74.4857 11.7857H127.286C128.536 11.7857 129.735 12.2824 130.619 13.1665C131.503 14.0506 132 15.2497 132 16.5V95.4643C132 96.7146 131.503 97.9137 130.619 98.7978C129.735 99.6819 128.536 100.179 127.286 100.179Z" fill="#3F79A8"/>
<path d="M75.4406 44.5188L55.9514 64.0081C55.2203 64.7392 54.2417 65.1629 53.2309 65.186C52.2201 65.2092 51.2599 64.8298 50.5616 64.1315C49.8632 63.4331 49.4839 62.4729 49.507 61.4621C49.5301 60.4513 49.9539 59.4727 50.685 58.7416L70.1742 39.2524C70.9053 38.5213 71.8839 38.0976 72.8947 38.0744C73.9054 38.0513 74.8656 38.4306 75.564 39.129C76.2624 39.8274 76.6417 40.7876 76.6186 41.7984C76.5955 42.8092 76.1717 43.7877 75.4406 44.5188Z" fill="#C43838"/>
<path d="M70.1742 64.0081L50.685 44.5188C49.9539 43.7877 49.5302 42.8092 49.507 41.7984C49.4839 40.7876 49.8632 39.8274 50.5616 39.129C51.26 38.4306 52.2202 38.0513 53.231 38.0744C54.2418 38.0976 55.2203 38.5213 55.9514 39.2524L75.4407 58.7416C76.1718 59.4727 76.5955 60.4513 76.6186 61.4621C76.6418 62.4729 76.2624 63.4331 75.564 64.1315C74.8657 64.8298 73.9055 65.2092 72.8947 65.186C71.8839 65.1629 70.9053 64.7392 70.1742 64.0081Z" fill="#C43838"/>
</svg>
