<svg width="132" height="132" viewBox="0 0 132 132" fill="none" xmlns="http://www.w3.org/2000/svg">
<g clip-path="url(#clip0_2701_2036)">
<path d="M121.894 131.773H10.1062C4.51688 131.773 0 127.256 0 121.667V10.3331C0 4.74368 4.51688 0.226807 10.1062 0.226807H121.894C127.483 0.226807 132 4.74368 132 10.3331V121.667C132 127.256 127.483 131.773 121.894 131.773Z" fill="#CCCCCC"/>
<path d="M9.28125 116.552V29.2256C9.28125 27.6503 9.90707 26.1394 11.021 25.0254C12.135 23.9115 13.6459 23.2856 15.2213 23.2856H116.779C118.354 23.2856 119.865 23.9115 120.979 25.0254C122.093 26.1394 122.719 27.6503 122.719 29.2256V116.552C122.719 118.127 122.093 119.638 120.979 120.752C119.865 121.866 118.354 122.492 116.779 122.492H15.2213C13.6459 122.492 12.135 121.866 11.021 120.752C9.90707 119.638 9.28125 118.127 9.28125 116.552Z" fill="#F4F4F4"/>
<path d="M14.2106 13.3857C16.0218 13.3857 17.49 11.9174 17.49 10.1063C17.49 8.29513 16.0218 6.8269 14.2106 6.8269C12.3995 6.8269 10.9313 8.29513 10.9313 10.1063C10.9313 11.9174 12.3995 13.3857 14.2106 13.3857Z" fill="#CC584C"/>
<path d="M27.555 10.1063C27.555 11.9213 26.0906 13.3857 24.2756 13.3857C22.4606 13.3857 20.9962 11.9213 20.9962 10.1063C20.9962 8.29128 22.4606 6.8269 24.2756 6.8269C26.0906 6.8269 27.555 8.29128 27.555 10.1063Z" fill="#FFD464"/>
<path d="M34.3613 13.3857C36.1724 13.3857 37.6407 11.9174 37.6407 10.1063C37.6407 8.29513 36.1724 6.8269 34.3613 6.8269C32.5501 6.8269 31.0819 8.29513 31.0819 10.1063C31.0819 11.9174 32.5501 13.3857 34.3613 13.3857Z" fill="#1A7D57"/>
<path d="M119.769 13.3857H44.1994C43.4775 13.3857 42.9 12.8082 42.9 12.0863V8.12628C42.9 7.4044 43.4775 6.8269 44.1994 6.8269H119.769C120.491 6.8269 121.069 7.4044 121.069 8.12628V12.0657C121.069 12.8082 120.491 13.3857 119.769 13.3857Z" fill="#F4F4F4"/>
<path fill-rule="evenodd" clip-rule="evenodd" d="M67.7858 86H64.2143C61.2608 86 58.8572 83.5964 58.8572 80.6429V66.3571C58.8572 63.4036 61.2608 61 64.2143 61H67.7858C70.7393 61 73.1429 63.4036 73.1429 66.3571V80.6429C73.1429 83.5964 70.7393 86 67.7858 86ZM64.2143 64.5714C63.2304 64.5714 62.4286 65.3714 62.4286 66.3571V80.6429C62.4286 81.6286 63.2304 82.4286 64.2143 82.4286H67.7858C68.7697 82.4286 69.5715 81.6286 69.5715 80.6429V66.3571C69.5715 65.3714 68.7697 64.5714 67.7858 64.5714H64.2143ZM53.5 78.8571H53.5V84.2142C53.5 85.2017 52.7 85.9999 51.7143 85.9999C50.7286 85.9999 49.9286 85.2017 49.9286 84.2142V78.8571H42.7858C42.2001 78.8571 41.6518 78.5696 41.3179 78.0875C40.984 77.6054 40.909 76.9929 41.1125 76.4429L46.4697 62.1571C46.8179 61.2339 47.8465 60.7732 48.7697 61.1125C49.6929 61.4589 50.1608 62.4893 49.8143 63.4125L45.3625 75.2857H49.9286V69.9285C49.9286 68.941 50.7286 68.1428 51.7143 68.1428C52.7 68.1428 53.5 68.941 53.5 69.9285V75.2857H53.5C54.4858 75.2857 55.2858 76.0839 55.2858 77.0714C55.2858 78.0589 54.4858 78.8571 53.5 78.8571ZM85.6429 78.8571H78.5C77.9143 78.8571 77.3661 78.5696 77.0322 78.0874C76.6982 77.6053 76.6232 76.9928 76.8268 76.4428L82.1839 62.1571C82.5322 61.2339 83.5607 60.7731 84.4839 61.1124C85.4072 61.4589 85.875 62.4892 85.5286 63.4124L81.0768 75.2856H85.6429V69.9285C85.6429 68.941 86.4429 68.1428 87.4286 68.1428C88.4143 68.1428 89.2143 68.941 89.2143 69.9285L89.2143 75.2856C90.2 75.2856 91 76.0839 91 77.0714C91 78.0589 90.2 78.8571 89.2143 78.8571L89.2143 84.2142C89.2143 85.2017 88.4143 85.9999 87.4286 85.9999C86.4429 85.9999 85.6429 85.2017 85.6429 84.2142V78.8571Z" fill="#D85446"/>
</g>
<defs>
<clipPath id="clip0_2701_2036">
<rect width="132" height="132" fill="white"/>
</clipPath>
</defs>
</svg>
