<svg width="75" height="32" viewBox="0 0 75 32" fill="none" xmlns="http://www.w3.org/2000/svg">
<g clip-path="url(#clip0_1256_1838)">
<path d="M18.1467 15.9773V15.9401C18.1467 12.1078 21.2392 8.99084 25.3631 8.99084C29.4869 8.99084 32.5412 12.0637 32.5412 15.9018V15.9401C32.5412 19.7725 29.4486 22.8883 25.3248 22.8883C21.2009 22.8883 18.1467 19.8155 18.1467 15.9773ZM28.7611 15.9773V15.9401C28.7611 14.0112 27.3675 12.3308 25.3248 12.3308C23.3006 12.3308 21.9453 13.9729 21.9453 15.9018V15.9401C21.9453 17.8679 23.3389 19.5484 25.3631 19.5484C27.407 19.5484 28.7611 17.9063 28.7611 15.9773Z" fill="white"/>
<path d="M32.1754 8.99084H36.3178L39.3534 17.8842L42.388 8.99084H46.4526L41.0327 22.8895H37.5975L32.1754 8.99084Z" fill="white"/>
<path d="M47.9472 8.97815H58.6952V12.2565H51.6112V14.3632H58.0251V17.4035H51.6135V19.61H58.7916V22.8884H47.9472V8.97815Z" fill="white"/>
<path d="M65.7397 8.99084H69.3107L75.0012 22.8906H71.0295L70.0563 20.4263H64.9001L63.9455 22.8906H60.0504L65.7397 8.99084ZM68.9821 17.4487L67.4933 13.5246L65.9836 17.4487H68.9821Z" fill="white"/>
<path d="M3.23891 8.47058L10.9419 12.9173L0 31.8687L3.23891 8.47058Z" fill="white"/>
<path d="M15.1575 23.3982L7.45331 18.9503L18.394 0L15.1575 23.3982Z" fill="white"/>
</g>
<defs>
<clipPath id="clip0_1256_1838">
<rect width="75" height="31.8688" fill="white"/>
</clipPath>
</defs>
</svg>
