<svg width="232" height="98" viewBox="0 0 232 98" fill="none" xmlns="http://www.w3.org/2000/svg">
<g clip-path="url(#clip0_1256_1847)">
<path d="M56.1338 49.1321V49.0178C56.1338 37.233 65.7002 27.6479 78.4565 27.6479C91.2129 27.6479 100.661 37.0973 100.661 48.9V49.0178C100.661 60.8027 91.0944 70.3841 78.338 70.3841C65.5816 70.3841 56.1338 60.9348 56.1338 49.1321ZM88.9677 49.1321V49.0178C88.9677 43.0861 84.6569 37.9186 78.338 37.9186C72.0766 37.9186 67.8843 42.9683 67.8843 48.9V49.0178C67.8843 54.946 72.1951 60.1134 78.4565 60.1134C84.779 60.1134 88.9677 55.0638 88.9677 49.1321Z" fill="black"/>
<path d="M99.5292 27.6479H112.343L121.733 54.996L131.12 27.6479H143.693L126.928 70.3877H116.302L99.5292 27.6479Z" fill="black"/>
<path d="M148.317 27.6086H181.564V37.6901H159.65V44.1681H179.491V53.5175H159.658V60.3027H181.862V70.3841H148.317V27.6086Z" fill="black"/>
<path d="M203.355 27.6479H214.401L232.004 70.3913H219.718L216.707 62.8132H200.757L197.805 70.3913H185.756L203.355 27.6479ZM213.385 53.6568L208.779 41.5898L204.109 53.6568H213.385Z" fill="black"/>
<path d="M10.019 26.0481L33.847 39.7221L0 98L10.019 26.0481Z" fill="url(#paint0_linear_1256_1847)"/>
<path d="M46.8871 71.9519L23.0556 58.2743L56.899 0L46.8871 71.9519Z" fill="url(#paint1_linear_1256_1847)"/>
</g>
<defs>
<linearGradient id="paint0_linear_1256_1847" x1="6.00465" y1="61.3299" x2="33.5661" y2="41.8748" gradientUnits="userSpaceOnUse">
<stop offset="0.37" stop-color="#4C83D3"/>
<stop offset="0.6" stop-color="#4C7CD3"/>
<stop offset="0.88" stop-color="#4C6CD3"/>
</linearGradient>
<linearGradient id="paint1_linear_1256_1847" x1="22.5451" y1="56.4194" x2="50.4766" y2="36.7302" gradientUnits="userSpaceOnUse">
<stop stop-color="#4C96D3"/>
<stop offset="0.58" stop-color="#4C83D3"/>
</linearGradient>
<clipPath id="clip0_1256_1847">
<rect width="232" height="98" fill="white"/>
</clipPath>
</defs>
</svg>
