<svg width="120" height="120" viewBox="0 0 120 120" fill="none" xmlns="http://www.w3.org/2000/svg">
<g clip-path="url(#clip0_1252_1955)">
<path d="M60 74.4375C56.1709 74.4375 52.4987 72.9164 49.7912 70.2089C47.0836 67.5013 45.5625 63.8291 45.5625 60C45.5599 57.8561 46.0466 55.7399 46.9856 53.8125C47.2263 53.3202 47.6527 52.9437 48.171 52.7658C48.6893 52.5878 49.2571 52.6231 49.7494 52.8638C50.2417 53.1045 50.6182 53.5309 50.7962 54.0492C50.9741 54.5675 50.9388 55.1352 50.6981 55.6275C50.0296 56.9879 49.6838 58.4842 49.6875 60C49.6875 62.7351 50.774 65.3581 52.708 67.2921C54.6419 69.226 57.265 70.3125 60 70.3125C62.7351 70.3125 65.3581 69.226 67.292 67.2921C69.226 65.3581 70.3125 62.7351 70.3125 60C70.3125 59.453 70.5298 58.9284 70.9166 58.5416C71.3034 58.1548 71.828 57.9375 72.375 57.9375C72.922 57.9375 73.4466 58.1548 73.8334 58.5416C74.2202 58.9284 74.4375 59.453 74.4375 60C74.4375 63.8291 72.9164 67.5013 70.2089 70.2089C67.5013 72.9164 63.8291 74.4375 60 74.4375ZM68.745 53.3175C68.4721 53.3164 68.2022 53.2611 67.9508 53.1549C67.6994 53.0487 67.4716 52.8937 67.2806 52.6988C65.348 50.771 62.7298 49.6881 60 49.6875C58.4633 49.6742 56.9448 50.0203 55.5656 50.6982C55.3219 50.8173 55.057 50.8873 54.7862 50.9041C54.5154 50.921 54.2439 50.8843 53.9873 50.7962C53.7306 50.7081 53.4939 50.5703 53.2905 50.3907C53.0871 50.2111 52.9211 49.9932 52.8019 49.7494C52.6827 49.5056 52.6127 49.2408 52.5959 48.97C52.5791 48.6991 52.6158 48.4277 52.7039 48.171C52.792 47.9144 52.9298 47.6776 53.1094 47.4742C53.289 47.2708 53.5069 47.1048 53.7506 46.9857C56.4536 45.6839 59.4949 45.2566 62.452 45.763C65.409 46.2693 68.1348 47.6843 70.2506 49.8113C70.6348 50.1977 70.8504 50.7205 70.8504 51.2653C70.8504 51.8102 70.6348 52.333 70.2506 52.7194C70.053 52.9156 69.8178 53.0697 69.559 53.1725C69.3002 53.2753 69.0234 53.3246 68.745 53.3175Z" fill="#C4C4C4"/>
<path d="M53.8126 96.5682H53.4619C47.7304 95.5364 42.322 93.1708 37.6737 89.6624C33.0254 86.154 29.2677 81.6013 26.7042 76.3722C24.1408 71.1431 22.8434 65.3842 22.917 59.561C22.9907 53.7378 24.4332 48.0136 27.1281 42.851C29.8229 37.6884 33.6946 33.2321 38.43 29.8424C43.1655 26.4527 48.6321 24.2245 54.3879 23.338C60.1437 22.4516 66.0273 22.9316 71.5633 24.7393C77.0993 26.5471 82.1323 29.6319 86.2557 33.7444C86.449 33.9361 86.6024 34.1642 86.7072 34.4156C86.8119 34.6669 86.8658 34.9365 86.8658 35.2088C86.8658 35.481 86.8119 35.7506 86.7072 36.002C86.6024 36.2533 86.449 36.4814 86.2557 36.6732L70.3126 52.7194C69.9242 53.1078 69.3974 53.326 68.8482 53.326C68.299 53.326 67.7722 53.1078 67.3838 52.7194C66.9954 52.331 66.7773 51.8043 66.7773 51.255C66.7773 50.7058 66.9954 50.179 67.3838 49.7906L81.8213 35.3531C75.826 29.974 68.0548 26.9992 60.0001 27C51.7542 27.0038 43.8085 30.0946 37.7274 35.6638C31.6464 41.2329 27.8707 48.877 27.1437 57.0908C26.4168 65.3046 28.7912 73.4929 33.7996 80.0435C38.808 86.5942 46.0874 91.0324 54.2044 92.4844C54.7515 92.5309 55.2576 92.7928 55.6115 93.2125C55.9654 93.6321 56.1381 94.1752 56.0916 94.7222C56.0451 95.2692 55.7832 95.7754 55.3636 96.1293C54.9439 96.4832 54.4008 96.6559 53.8538 96.6094L53.8126 96.5682Z" fill="#C4C4C4"/>
<path d="M66.1876 96.5681C65.6406 96.6146 65.0976 96.4419 64.6779 96.088C64.2582 95.7341 63.9963 95.2279 63.9498 94.6809C63.9033 94.1339 64.076 93.5909 64.43 93.1712C64.7839 92.7515 65.29 92.4896 65.837 92.4431C73.1123 91.1513 79.7435 87.4552 84.6686 81.9468C89.5936 76.4384 92.5274 69.4364 93.0001 62.0625H72.3751C71.8281 62.0625 71.3035 61.8452 70.9167 61.4584C70.5299 61.0716 70.3126 60.547 70.3126 60C70.3126 59.453 70.5299 58.9284 70.9167 58.5416C71.3035 58.1548 71.8281 57.9375 72.3751 57.9375H95.0626C95.6096 57.9375 96.1343 58.1548 96.521 58.5416C96.9078 58.9284 97.1251 59.453 97.1251 60C97.1241 68.7186 94.0545 77.1588 88.4544 83.8411C82.8544 90.5235 75.0811 95.0217 66.497 96.5475L66.1876 96.5681Z" fill="#C4C4C4"/>
<path d="M60.0002 119.813C46.3266 119.795 33.0689 115.109 22.4214 106.53C22.0764 106.172 21.8723 105.702 21.8467 105.205C21.821 104.709 21.9755 104.22 22.2817 103.828C22.588 103.437 23.0253 103.169 23.5134 103.074C24.0014 102.979 24.5072 103.064 24.9377 103.313C36.0246 112.286 50.1323 116.664 64.3518 115.542C78.5712 114.421 91.8182 107.886 101.361 97.2846C110.904 86.6836 116.016 72.8249 115.641 58.5663C115.267 44.3076 109.436 30.736 99.35 20.6502C89.2641 10.5643 75.6926 4.73303 61.4339 4.35884C47.1753 3.98464 33.3166 9.09603 22.7156 18.639C12.1145 28.182 5.57949 41.429 4.45794 55.6484C3.33638 69.8679 7.71384 83.9756 16.6877 95.0625C16.8583 95.2738 16.9857 95.5166 17.0625 95.7771C17.1393 96.0376 17.164 96.3106 17.1353 96.5807C17.1065 96.8507 17.0249 97.1124 16.895 97.3509C16.7651 97.5894 16.5896 97.8 16.3783 97.9706C16.167 98.1413 15.9242 98.2686 15.6637 98.3454C15.4033 98.4222 15.1302 98.447 14.8602 98.4183C14.5901 98.3895 14.3284 98.3079 14.0899 98.178C13.8514 98.0481 13.6408 97.8725 13.4702 97.6613C4.92723 87.1209 0.221697 73.9892 0.126001 60.4219C0.0303042 46.8546 4.55014 33.6579 12.9435 22.9981C21.3369 12.3382 33.1051 4.84875 46.3163 1.75908C59.5275 -1.33059 73.3965 0.163135 85.6468 5.99506C97.8971 11.827 107.801 21.6505 113.732 33.8531C119.663 46.0557 121.269 59.9123 118.287 73.148C115.304 86.3838 107.91 98.2124 97.3189 106.692C86.7275 115.172 73.5678 119.798 60.0002 119.813Z" fill="#C4C4C4"/>
<path d="M51.75 57.9375C55.1673 57.9375 57.9375 55.1673 57.9375 51.75C57.9375 48.3327 55.1673 45.5625 51.75 45.5625C48.3327 45.5625 45.5625 48.3327 45.5625 51.75C45.5625 55.1673 48.3327 57.9375 51.75 57.9375Z" fill="#C43838"/>
<path d="M60 103.312C64.5563 103.312 68.25 99.6188 68.25 95.0625C68.25 90.5062 64.5563 86.8125 60 86.8125C55.4437 86.8125 51.75 90.5062 51.75 95.0625C51.75 99.6188 55.4437 103.312 60 103.312Z" fill="#C43838"/>
<path d="M18.75 109.5C23.3063 109.5 27 105.806 27 101.25C27 96.6937 23.3063 93 18.75 93C14.1937 93 10.5 96.6937 10.5 101.25C10.5 105.806 14.1937 109.5 18.75 109.5Z" fill="#C43838"/>
<path d="M102.302 17.6981C102.109 17.507 101.881 17.3557 101.629 17.2531C101.378 17.1505 101.109 17.0984 100.838 17.1C100.566 17.0984 100.297 17.1505 100.046 17.2531C99.7946 17.3557 99.566 17.507 99.3733 17.6981L58.5358 58.5356C58.2496 58.8257 58.0557 59.194 57.9787 59.5941C57.9016 59.9942 57.9447 60.4082 58.1027 60.7838C58.2574 61.1604 58.5202 61.4828 58.8578 61.7104C59.1955 61.938 59.593 62.0605 60.0002 62.0625H117.75C118.297 62.0625 118.822 61.8452 119.209 61.4584C119.595 61.0716 119.813 60.547 119.813 60C119.828 52.1425 118.289 44.3596 115.284 37.0995C112.279 29.8394 107.867 23.2457 102.302 17.6981Z" fill="#C43838"/>
<path d="M60 64.125C62.2782 64.125 64.125 62.2782 64.125 60C64.125 57.7218 62.2782 55.875 60 55.875C57.7218 55.875 55.875 57.7218 55.875 60C55.875 62.2782 57.7218 64.125 60 64.125Z" fill="#A72F2F"/>
</g>
<defs>
<clipPath id="clip0_1252_1955">
<rect width="120" height="120" fill="white"/>
</clipPath>
</defs>
</svg>
