<svg width="16" height="16" viewBox="0 0 16 16" fill="none" xmlns="http://www.w3.org/2000/svg">
<path fill-rule="evenodd" clip-rule="evenodd" d="M2.66336 13.9646C4.1293 15.2757 6.02711 16.0003 7.99381 16C9.64786 16.0024 11.2619 15.4916 12.6135 14.538C13.295 14.0572 13.8928 13.4758 14.3889 12.8176V14.4013C14.3889 14.6133 14.4731 14.8167 14.623 14.9666C14.7729 15.1165 14.9762 15.2007 15.1883 15.2007C15.4003 15.2007 15.6036 15.1165 15.7535 14.9666C15.9034 14.8167 15.9876 14.6133 15.9876 14.4013V10.4044C15.9876 10.1924 15.9034 9.98909 15.7535 9.83918C15.6036 9.68927 15.4003 9.60505 15.1883 9.60505H11.1913C10.9793 9.60505 10.776 9.68927 10.6261 9.83918C10.4762 9.98909 10.392 10.1924 10.392 10.4044C10.392 10.6164 10.4762 10.8198 10.6261 10.9697C10.776 11.1196 10.9793 11.2038 11.1913 11.2038H13.5502C13.0301 12.1101 12.2925 12.8806 11.3968 13.4413C10.168 14.2104 8.71428 14.5393 7.27407 14.3739C5.83385 14.2085 4.49256 13.5587 3.47011 12.531C2.44766 11.5033 1.80472 10.1587 1.64672 8.71762C1.6234 8.50562 1.51681 8.31155 1.35041 8.17813C1.184 8.04471 0.971412 7.98285 0.759403 8.00617C0.547394 8.0295 0.353332 8.13608 0.219909 8.30249C0.153845 8.38488 0.104657 8.47948 0.0751526 8.58088C0.0456483 8.68229 0.0364059 8.78851 0.0479532 8.89349C0.266257 10.848 1.19743 12.6535 2.66336 13.9646ZM14.604 7.80394C14.7516 7.93533 14.9427 8.00737 15.1403 8.00617L15.2442 7.99019C15.4537 7.96608 15.6453 7.86012 15.777 7.69541C15.9088 7.53071 15.9701 7.3206 15.9477 7.11087C15.7477 5.31155 14.9429 3.63339 13.6649 2.35105C12.387 1.06871 10.7116 0.258143 8.91296 0.0520023C7.11434 -0.154138 5.29901 0.25636 3.76407 1.21631C2.91923 1.74468 2.18687 2.42228 1.59876 3.20947V1.61123C1.59876 1.39922 1.51454 1.1959 1.36463 1.04598C1.21472 0.896069 1.01139 0.811849 0.799382 0.811849C0.587372 0.811849 0.384047 0.896069 0.234133 1.04598C0.0842203 1.1959 0 1.39922 0 1.61123V5.60814C0 5.82015 0.0842203 6.02347 0.234133 6.17339C0.384047 6.3233 0.587372 6.40752 0.799382 6.40752H4.79629C5.0083 6.40752 5.21163 6.3233 5.36154 6.17339C5.51145 6.02347 5.59567 5.82015 5.59567 5.60814C5.59567 5.39613 5.51145 5.1928 5.36154 5.04289C5.21163 4.89298 5.0083 4.80876 4.79629 4.80876H2.46092C2.98313 3.91168 3.71908 3.14984 4.6105 2.59546C5.83639 1.83307 7.28416 1.50788 8.71832 1.67279C10.1525 1.8377 11.4887 2.48301 12.5095 3.50374C13.5304 4.52447 14.1758 5.86058 14.3409 7.29472C14.3626 7.49115 14.4564 7.67256 14.604 7.80394Z" fill="white"/>
</svg>
