<svg width="120" height="121" viewBox="0 0 120 121" fill="none" xmlns="http://www.w3.org/2000/svg">
<path d="M56.5 97.9916V96.4916H55H17.5C13.2565 96.4916 9.18687 94.8059 6.18629 91.8053C3.18571 88.8048 1.5 84.7351 1.5 80.4916V18.1666C1.5 13.9232 3.18571 9.8535 6.18629 6.85292C9.18688 3.85234 13.2565 2.16663 17.5 2.16663H102.5C106.743 2.16663 110.813 3.85234 113.814 6.85292C116.814 9.8535 118.5 13.9232 118.5 18.1666V80.4916C118.5 84.7351 116.814 88.8048 113.814 91.8053C110.813 94.8059 106.743 96.4916 102.5 96.4916H65H63.5V97.9916V110.667V112.167H65H82.35C83.2783 112.167 84.1685 112.535 84.8249 113.192C85.4813 113.848 85.85 114.738 85.85 115.667C85.85 116.595 85.4813 117.485 84.8249 118.142C84.1685 118.798 83.2783 119.167 82.35 119.167H37.65C36.7217 119.167 35.8315 118.798 35.1751 118.142C34.5187 117.485 34.15 116.595 34.15 115.667C34.15 114.738 34.5187 113.848 35.1751 113.192C35.8315 112.535 36.7217 112.167 37.65 112.167H55H56.5V110.667V97.9916ZM110 71.1916H111.5V69.6916V18.1666C111.5 15.7797 110.552 13.4905 108.864 11.8027C107.176 10.1148 104.887 9.16663 102.5 9.16663H17.5C15.1131 9.16663 12.8239 10.1148 11.136 11.8027C9.44821 13.4905 8.5 15.7797 8.5 18.1666V69.6916V71.1916H10H110ZM10 78.1916H8.5V79.6916V80.4916C8.5 82.8786 9.44821 85.1678 11.136 86.8556C12.8239 88.5434 15.113 89.4916 17.5 89.4916H102.5C104.887 89.4916 107.176 88.5434 108.864 86.8556C110.552 85.1678 111.5 82.8786 111.5 80.4916V79.6916V78.1916H110H10Z" fill="#333333" stroke="white" stroke-width="3"/>
<path d="M60.0001 58.4769C70.1589 58.4769 78.3943 50.0454 78.3943 39.6447C78.3943 29.244 70.1589 20.8126 60.0001 20.8126C49.8413 20.8126 41.606 29.244 41.606 39.6447C41.606 50.0454 49.8413 58.4769 60.0001 58.4769Z" stroke="#C4C4C4" stroke-width="4" stroke-linecap="round" stroke-linejoin="round"/>
<path d="M76.5618 25.9136C75.4126 25.9446 74.2945 26.3795 73.4558 27.2181L57.9258 42.7481C57.0872 43.5867 56.6524 44.7049 56.6213 45.8541C56.6524 47.0033 57.0872 48.1215 57.9258 48.9601C58.7644 49.7987 59.8826 50.2336 61.0318 50.2646C62.181 50.2336 63.2992 49.7987 64.1378 48.9601L79.6679 33.4301C80.5065 32.5915 80.9413 31.4733 80.9724 30.3241C80.9413 29.1749 80.5065 28.0567 79.6679 27.2181C78.8292 26.3795 77.7111 25.9446 76.5618 25.9136Z" fill="#56C568"/>
<path d="M49.1667 38.8431C49.1978 39.9924 49.6326 41.1105 50.4713 41.9492L57.6586 49.1365C58.4973 49.9752 59.6154 50.41 60.7646 50.4411C61.9139 50.41 63.032 49.9752 63.8707 49.1365C64.7093 48.2979 65.1441 47.1798 65.1752 46.0305C65.1441 44.8813 64.7093 43.7631 63.8707 42.9245L56.6833 35.7371C55.8447 34.8985 54.7265 34.4636 53.5773 34.4326C52.4281 34.4636 51.3099 34.8985 50.4713 35.7371C49.6326 36.5757 49.1978 37.6939 49.1667 38.8431Z" fill="#56C568"/>
</svg>
