<svg width="80" height="122" viewBox="0 0 80 122" fill="none" xmlns="http://www.w3.org/2000/svg">
<path d="M40 66.3333C48.8366 66.3333 56 59.1698 56 50.3333C56 41.4967 48.8366 34.3333 40 34.3333C31.1634 34.3333 24 41.4967 24 50.3333C24 59.1698 31.1634 66.3333 40 66.3333Z" stroke="#C4C4C4" stroke-width="4" stroke-linecap="round" stroke-linejoin="round"/>
<path d="M77.3336 14.0666V107.933C77.6343 110.724 76.8231 113.52 75.0761 115.716C73.329 117.913 70.7867 119.332 68.0003 119.667H50.6669C50.6669 116.838 49.5431 114.125 47.5427 112.124C45.5423 110.124 42.8292 109 40.0002 109C37.1713 109 34.4582 110.124 32.4578 112.124C30.4574 114.125 29.3336 116.838 29.3336 119.667H12.0002C9.2138 119.332 6.67151 117.913 4.92443 115.716C3.17734 113.52 2.36623 110.724 2.6669 107.933V14.0666C2.36623 11.2763 3.17734 8.4799 4.92443 6.28356C6.67151 4.08722 9.2138 2.66791 12.0002 2.33325H29.3336C29.3336 5.16223 30.4574 7.87534 32.4578 9.87573C34.4582 11.8761 37.1713 12.9999 40.0002 12.9999C42.8292 12.9999 45.5423 11.8761 47.5427 9.87573C49.5431 7.87534 50.6669 5.16223 50.6669 2.33325H68.0003C70.7867 2.66791 73.329 4.08722 75.0761 6.28356C76.8231 8.4799 77.6343 11.2763 77.3336 14.0666Z" stroke="#333333" stroke-width="4" stroke-linecap="round" stroke-linejoin="round"/>
<path d="M2.66699 87.6666H13.3337" stroke="#333333" stroke-width="4" stroke-linecap="round" stroke-linejoin="round"/>
<path d="M66.667 87.6666H77.3337" stroke="#333333" stroke-width="4" stroke-linecap="round" stroke-linejoin="round"/>
<path d="M34.667 87.6666H45.3337" stroke="#333333" stroke-width="4" stroke-linecap="round" stroke-linejoin="round"/>
<path d="M54.0624 38.5464C53.0759 38.5731 52.116 38.9463 51.3962 39.6662L38.0651 52.9972C37.3453 53.7171 36.972 54.677 36.9453 55.6635C36.972 56.65 37.3453 57.6098 38.0651 58.3297C38.785 59.0495 39.7448 59.4228 40.7313 59.4495C41.7178 59.4228 42.6777 59.0495 43.3975 58.3297L56.7286 44.9986C57.4484 44.2788 57.8217 43.3189 57.8484 42.3324C57.8217 41.3459 57.4484 40.3861 56.7286 39.6662C56.0087 38.9463 55.0489 38.5731 54.0624 38.5464Z" fill="#56C568"/>
<path d="M30.5463 49.6451C30.5729 50.6316 30.9462 51.5914 31.6661 52.3113L37.8357 58.4809C38.5556 59.2008 39.5154 59.5741 40.5019 59.6008C41.4884 59.5741 42.4482 59.2008 43.1681 58.4809C43.888 57.7611 44.2612 56.8012 44.2879 55.8147C44.2612 54.8282 43.888 53.8684 43.1681 53.1485L36.9985 46.9789C36.2786 46.259 35.3188 45.8857 34.3323 45.8591C33.3458 45.8857 32.386 46.259 31.6661 46.9789C30.9462 47.6988 30.5729 48.6586 30.5463 49.6451Z" fill="#56C568"/>
</svg>
