<svg width="120" height="132" viewBox="0 0 120 132" fill="none" xmlns="http://www.w3.org/2000/svg">
<g clip-path="url(#clip0_1256_1810)">
<path d="M4.1377 29.2759H115.862M103.448 29.2759V116.172C103.448 119.465 102.14 122.622 99.8121 124.95C97.4841 127.278 94.3266 128.586 91.0343 128.586H28.9653C25.6729 128.586 22.5154 127.278 20.1874 124.95C17.8594 122.622 16.5515 119.465 16.5515 116.172V29.2759M35.1722 29.2759V16.8622C35.1722 13.5698 36.4801 10.4123 38.8081 8.08428C41.1361 5.75624 44.2936 4.44836 47.586 4.44836H72.4136C75.7059 4.44836 78.8634 5.75624 81.1914 8.08428C83.5195 10.4123 84.8274 13.5698 84.8274 16.8622V29.2759" stroke="#C43838" stroke-width="8" stroke-linecap="round" stroke-linejoin="round"/>
<path d="M47.5864 66.5173V103.759M72.414 66.5173V103.759" stroke="#C4C4C4" stroke-width="8" stroke-linecap="round" stroke-linejoin="round"/>
</g>
<defs>
<clipPath id="clip0_1256_1810">
<rect width="120" height="131.379" fill="white" transform="translate(0 0.310425)"/>
</clipPath>
</defs>
</svg>
