<svg width="132" height="132" viewBox="0 0 132 132" fill="none" xmlns="http://www.w3.org/2000/svg">
<g clip-path="url(#clip0_2794_859)">
<path d="M121.894 131.773H10.1062C4.51688 131.773 0 127.256 0 121.667V10.3332C0 4.7438 4.51688 0.226929 10.1062 0.226929H121.894C127.483 0.226929 132 4.7438 132 10.3332V121.667C132 127.256 127.483 131.773 121.894 131.773Z" fill="#CCCCCC"/>
<path d="M9.28125 116.552V29.2256C9.28125 27.6503 9.90707 26.1394 11.021 25.0254C12.135 23.9115 13.6459 23.2856 15.2213 23.2856H116.779C118.354 23.2856 119.865 23.9115 120.979 25.0254C122.093 26.1394 122.719 27.6503 122.719 29.2256V116.552C122.719 118.127 122.093 119.638 120.979 120.752C119.865 121.866 118.354 122.492 116.779 122.492H15.2213C13.6459 122.492 12.135 121.866 11.021 120.752C9.90707 119.638 9.28125 118.127 9.28125 116.552Z" fill="#F4F4F4"/>
<path d="M14.2105 13.3857C16.0217 13.3857 17.4899 11.9174 17.4899 10.1063C17.4899 8.29513 16.0217 6.8269 14.2105 6.8269C12.3994 6.8269 10.9312 8.29513 10.9312 10.1063C10.9312 11.9174 12.3994 13.3857 14.2105 13.3857Z" fill="#CC584C"/>
<path d="M27.5551 10.1063C27.5551 11.9213 26.0907 13.3857 24.2757 13.3857C22.4607 13.3857 20.9963 11.9213 20.9963 10.1063C20.9963 8.29128 22.4607 6.8269 24.2757 6.8269C26.0907 6.8269 27.5551 8.29128 27.5551 10.1063Z" fill="#FFD464"/>
<path d="M34.3612 13.3857C36.1723 13.3857 37.6405 11.9174 37.6405 10.1063C37.6405 8.29513 36.1723 6.8269 34.3612 6.8269C32.55 6.8269 31.0818 8.29513 31.0818 10.1063C31.0818 11.9174 32.55 13.3857 34.3612 13.3857Z" fill="#1A7D57"/>
<path d="M119.769 13.3857H44.1993C43.4774 13.3857 42.8999 12.8082 42.8999 12.0863V8.12628C42.8999 7.4044 43.4774 6.8269 44.1993 6.8269H119.769C120.491 6.8269 121.069 7.4044 121.069 8.12628V12.0657C121.069 12.8082 120.491 13.3857 119.769 13.3857Z" fill="#F4F4F4"/>
<path d="M78.5123 66.0231L59.0231 85.5123C58.292 86.2434 57.3134 86.6671 56.3026 86.6902C55.2918 86.7134 54.3316 86.334 53.6332 85.6357C52.9348 84.9373 52.5555 83.9771 52.5786 82.9663C52.6018 81.9555 53.0255 80.9769 53.7566 80.2458L73.2458 60.7566C73.9769 60.0255 74.9555 59.6018 75.9663 59.5786C76.9771 59.5555 77.9373 59.9349 78.6357 60.6332C79.334 61.3316 79.7134 62.2918 79.6903 63.3026C79.6671 64.3134 79.2434 65.292 78.5123 66.0231Z" fill="#C43838"/>
<path d="M73.246 85.5123L53.7568 66.0231C53.0257 65.292 52.6019 64.3134 52.5788 63.3026C52.5557 62.2918 52.935 61.3316 53.6334 60.6332C54.3318 59.9348 55.292 59.5555 56.3027 59.5786C57.3135 59.6018 58.2921 60.0255 59.0232 60.7566L78.5124 80.2458C79.2435 80.9769 79.6673 81.9555 79.6904 82.9663C79.7135 83.9771 79.3342 84.9373 78.6358 85.6357C77.9374 86.334 76.9772 86.7134 75.9665 86.6903C74.9557 86.6671 73.9771 86.2434 73.246 85.5123Z" fill="#C43838"/>
</g>
<defs>
<clipPath id="clip0_2794_859">
<rect width="132" height="132" fill="white"/>
</clipPath>
</defs>
</svg>
