<svg xmlns="http://www.w3.org/2000/svg" width="246" height="128" viewBox="0 0 246 128" fill="none">
  <path d="M67.9209 26.9162H65.7693C62.2229 26.9162 60.7655 25.534 60.7655 22.7631C60.7655 19.9923 62.2354 18.61 65.7693 18.61H67.9334V10.9104C67.9334 6.75727 70.4353 4.59314 74.2507 4.59314C78.0661 4.59314 80.568 6.75727 80.568 10.9104V18.61H84.3771C88.1299 18.61 90.0876 19.7358 90.0876 22.7631C90.0876 25.7904 88.0986 26.9162 84.3771 26.9162H80.568V52.1853C80.568 54.0617 81.6062 55.1313 83.8579 55.1313H85.6718C88.4427 55.1313 90.0876 56.6887 90.0876 59.3657C90.0876 62.9997 86.9603 64.995 80.912 64.995C71.7425 64.995 67.9334 61.1859 67.9334 53.7365L67.9209 26.9162Z" fill="#4bafeb"/>
  <path d="M107.376 43.5976C107.376 50.2588 111.704 55.1062 119.059 55.1062C128.579 55.1062 128.579 48.8515 133.683 48.8515C135.015 48.856 136.294 49.3696 137.26 50.2872C138.225 51.2047 138.803 52.4567 138.874 53.7865C138.874 61.3985 126.671 64.9512 119.059 64.9512C101.409 64.9512 94.7411 53.0047 94.7411 42.0214C94.7411 27.3103 103.654 17.4403 118.628 17.4403C133.164 17.4403 141.47 27.7418 141.47 38.1247C141.451 42.4967 140.2 43.5976 135.935 43.5976H107.376ZM129.53 36.3233C128.836 30.5314 124.526 26.3158 118.897 26.3158C112.58 26.3158 108.777 30.2062 107.388 36.3233H129.53Z" fill="#4bafeb"/>
  <path d="M149.583 23.8014C149.583 19.9985 151.309 17.4841 155.293 17.4841C159.277 17.4841 161.004 19.986 161.004 23.8014V25.4589H161.179C164.725 20.7866 169.31 17.4966 176.49 17.4966C184.109 17.4966 192.415 21.3058 192.415 34.1154V58.6777C192.415 62.049 191.026 64.995 186.098 64.995C181.169 64.995 179.78 62.049 179.78 58.6777V36.6111C179.78 31.5072 177.278 27.8545 171.818 27.8545C169.228 27.9087 166.764 28.9857 164.965 30.8502C163.167 32.7147 162.179 35.2152 162.217 37.8057V58.6777C162.217 62.049 160.829 64.995 155.9 64.995C150.971 64.995 149.583 62.049 149.583 58.6777V23.8014Z" fill="#4bafeb"/>
  <path d="M245.28 59.0218C245.28 62.9185 243.466 64.9951 239.569 64.9951C235.848 64.9951 233.859 62.9185 233.859 59.0218V57.0328H233.684C231.607 62.3993 226.503 64.9951 220.361 64.9951C209.803 64.9951 200.54 57.2892 200.54 40.9394C200.54 28.824 206.688 17.4842 220.011 17.4842C225.64 17.4842 229.962 19.8235 232.47 23.889H232.645V6.75733C232.645 2.6042 235.147 0.440063 238.963 0.440063C242.778 0.440063 245.28 2.6042 245.28 6.75733V59.0218ZM223.213 55.1314C230.569 55.1314 233.34 48.5514 233.34 41.371C233.34 34.8786 230.913 27.2666 223.213 27.3541C215.17 27.3541 213.174 35.4853 213.174 41.371C213.193 48.8141 216.508 54.9562 223.232 55.1314H223.213Z" fill="#4bafeb"/>
  <path d="M0.720184 83.6278C0.720184 79.2495 3.7162 78.2362 6.64341 78.2362H9.83331C13.2296 78.2362 14.8371 79.5685 15.9567 83.24L25.4701 113.982H25.6077L34.9898 83.24C36.1219 79.581 37.7169 78.2362 41.1069 78.2362H44.1717C47.099 78.2362 50.095 79.237 50.095 83.6278V122.551C50.095 125.278 48.7627 127.874 45.235 127.874C41.7074 127.874 40.3751 125.278 40.3751 122.551V92.8785H40.2438L30.0611 124.684C29.3293 126.942 27.6655 127.874 25.4076 127.874C23.1496 127.874 21.4796 126.942 20.7478 124.684L10.5651 92.8785H10.4338V122.551C10.4338 125.278 9.10151 127.874 5.5801 127.874C2.05869 127.874 0.720184 125.278 0.720184 122.551V83.6278Z" fill="#5EBA24"/>
  <path d="M67.0578 111.442C67.0578 116.565 70.379 120.293 76.0396 120.293C83.3576 120.293 83.3576 115.502 87.2981 115.502C88.3213 115.505 89.3045 115.899 90.0464 116.604C90.7883 117.309 91.2327 118.27 91.2886 119.292C91.2886 125.147 81.9065 127.874 76.0521 127.874C62.4731 127.874 57.3505 118.692 57.3505 110.242C57.3505 98.9331 64.2307 91.3461 75.7143 91.3461C86.8978 91.3461 93.2838 99.2645 93.2838 107.246C93.2838 110.573 92.2831 111.442 89.0244 111.442H67.0578ZM84.0894 105.851C83.5577 101.391 80.2302 98.1324 75.902 98.1324C71.0483 98.1324 68.1211 101.128 67.0578 105.851H84.0894Z" fill="#5EBA24"/>
  <path d="M132.457 123.283C132.457 126.279 131.062 127.874 128.079 127.874C125.221 127.874 123.701 126.279 123.701 123.283V121.782H123.569C121.974 125.903 118.046 127.899 113.324 127.899C105.193 127.899 98.0813 121.975 98.0813 109.403C98.0813 100.084 102.81 91.3711 113.055 91.3711C117.377 91.3711 120.705 93.1662 122.637 96.2936H122.769V83.0961C122.769 79.9 124.701 78.2362 127.629 78.2362C130.556 78.2362 132.482 79.9 132.482 83.0961L132.457 123.283ZM115.494 120.293C121.124 120.293 123.275 115.233 123.275 109.71C123.275 104.706 121.399 98.8643 115.494 98.9331C109.302 98.9331 107.776 105.188 107.776 109.71C107.776 115.433 110.303 120.155 115.494 120.293Z" fill="#5EBA24"/>
  <path d="M145.561 77.9985C146.562 77.9973 147.541 78.2932 148.375 78.8487C149.208 79.4042 149.857 80.1945 150.241 81.1193C150.625 82.0442 150.725 83.0621 150.53 84.0442C150.335 85.0264 149.853 85.9286 149.145 86.6366C148.437 87.3447 147.535 87.8267 146.553 88.0218C145.571 88.2168 144.553 88.1161 143.628 87.7323C142.703 87.3485 141.913 86.699 141.357 85.8659C140.802 85.0328 140.506 84.0537 140.507 83.0524C140.507 81.712 141.04 80.4265 141.987 79.4788C142.935 78.531 144.221 77.9985 145.561 77.9985ZM140.707 96.2248C140.707 93.6353 141.771 91.3711 145.561 91.3711C149.351 91.3711 150.421 93.6353 150.421 96.2248V123.033C150.421 125.628 149.358 127.886 145.561 127.886C141.764 127.886 140.707 125.628 140.707 123.033V96.2248Z" fill="#5EBA24"/>
  <path d="M175.039 91.3461C183.17 91.3461 189.212 95.937 189.212 100.459C189.212 103.255 187.148 104.65 184.69 104.65C180.099 104.65 181.763 98.9331 174.776 98.9331C170.98 98.9331 166.52 101.523 166.52 110.31C166.52 116.365 169.385 120.318 174.708 120.318C181.494 120.318 180.03 114.063 185.153 114.063C185.665 114.035 186.178 114.109 186.662 114.281C187.145 114.454 187.589 114.722 187.967 115.069C188.345 115.415 188.65 115.834 188.864 116.301C189.078 116.767 189.196 117.272 189.212 117.785C189.212 122.044 184.421 127.899 174.439 127.899C162.461 127.899 156.807 120.512 156.807 110.335C156.807 99.1332 163.13 91.3461 175.039 91.3461Z" fill="#5EBA24"/>
  <path d="M226.672 117.629C226.672 121.688 227.666 122.632 227.666 124.152C227.666 126.348 225.609 127.905 223.288 127.905C219.097 127.905 217.703 125.247 217.565 122.276C213.775 126.466 209.384 127.905 204.261 127.905C198.738 127.905 193.278 124.115 193.278 117.991C193.278 109.941 199.401 107.677 206.857 106.814L212.755 106.145C215.088 105.876 216.952 105.344 216.952 102.548C216.952 99.7525 214.087 98.5579 210.829 98.5579C203.642 98.5579 203.442 103.881 199.57 103.881C197.106 103.881 195.442 102.148 195.442 100.128C195.442 96.2687 200.903 91.3712 210.885 91.3712C220.198 91.3712 226.653 94.3672 226.653 101.379L226.672 117.629ZM216.958 110.642C215.889 111.643 213.894 111.974 212.761 112.174L209.24 112.706C205.181 113.3 202.985 114.582 202.985 117.497C202.985 119.693 205.043 121.488 208.371 121.488C213.693 121.488 216.958 118.029 216.958 114.432V110.642Z" fill="#5EBA24"/>
  <path d="M235.585 83.0961C235.585 79.9 237.512 78.2362 240.439 78.2362C243.366 78.2362 245.28 79.8749 245.28 83.0961V123.033C245.28 126.222 243.347 127.886 240.42 127.886C237.493 127.886 235.566 126.222 235.566 123.033L235.585 83.0961Z" fill="#5EBA24"/>
  <path d="M9.62692 19.9109L17.0325 28.7426C16.7698 28.974 16.5071 29.1992 16.2382 29.4181L15.2374 30.225L2.87808 15.4889C2.10516 14.5673 1.52133 13.5025 1.15992 12.3552C0.798511 11.208 0.666604 10.0008 0.77173 8.80265C0.876855 7.60445 1.21695 6.43869 1.77261 5.37192C2.32826 4.30516 3.08859 3.35829 4.01018 2.58537C4.93177 1.81245 5.99658 1.22862 7.1438 0.867209C8.29102 0.505801 9.4982 0.373895 10.6964 0.47902C11.8946 0.584146 13.0604 0.924245 14.1271 1.4799C15.1939 2.03555 16.1408 2.79588 16.9137 3.71747L23.1684 11.1543L23.0746 14.6695L20.1098 11.1293C18.9249 9.82211 17.2801 9.02414 15.52 8.90257C13.7598 8.78099 12.0209 9.34524 10.6675 10.4771C9.31412 11.609 8.45121 13.2207 8.25957 14.9746C8.06792 16.7285 8.56241 18.4885 9.63943 19.8859L9.62692 19.9109Z" fill="#4bafeb"/>
  <path d="M54.8548 63.2249C52.9924 64.7841 50.587 65.5401 48.1674 65.3266C45.7479 65.1132 43.512 63.9478 41.9513 62.0865L35.7466 54.6497L35.8029 51.1032L38.7739 54.6497C39.9589 55.9569 41.6037 56.7548 43.3638 56.8764C45.1239 56.998 46.8628 56.4337 48.2162 55.3019C49.5696 54.17 50.4326 52.5583 50.6242 50.8044C50.8158 49.0505 50.3214 47.2905 49.2443 45.893L41.8325 37.0551C42.0889 36.83 42.3579 36.5985 42.6268 36.3796L43.6276 35.5728L55.9932 50.3151C57.5528 52.1786 58.3089 54.585 58.0955 57.0056C57.882 59.4262 56.7165 61.6631 54.8548 63.2249Z" fill="#4bafeb"/>
  <path d="M28.0909 48.7452L16.8949 62.0803C15.3331 63.9407 13.0962 65.1045 10.6763 65.3156C8.25646 65.5267 5.85183 64.7679 3.99142 63.2061C2.13101 61.6443 0.967232 59.4074 0.756094 56.9875C0.544956 54.5677 1.30376 52.163 2.86557 50.3026L12.11 39.2943C13.0332 39.3131 13.9535 39.4052 14.8621 39.5695L9.52685 45.9368C8.50216 47.3457 8.05006 49.0908 8.26178 50.8199C8.4735 52.5491 9.33327 54.1336 10.6676 55.2536C12.0019 56.3736 13.7114 56.9457 15.4511 56.8545C17.1908 56.7633 18.8311 56.0156 20.041 54.7622L26.621 46.9251L28.0909 48.7452Z" fill="#4bafeb"/>
  <path d="M56.0057 15.5076L46.7675 26.5097C45.8447 26.4846 44.9249 26.3926 44.0154 26.2345L49.3632 19.8672C50.3722 18.4553 50.8104 16.7144 50.59 14.9932C50.3697 13.2719 49.5071 11.6975 48.175 10.5854C46.843 9.47325 45.1399 8.90552 43.407 8.99595C41.6741 9.08637 40.0393 9.82827 38.8303 11.073L32.2503 18.8789L30.7804 17.0588L42.0014 3.72372C42.752 2.73331 43.6961 1.90593 44.7765 1.29187C45.8568 0.677809 47.0508 0.289913 48.2857 0.151768C49.5207 0.013623 50.7709 0.128117 51.9602 0.488286C53.1495 0.848456 54.2532 1.44677 55.204 2.24686C56.1549 3.04694 56.933 4.03206 57.4912 5.14232C58.0494 6.25258 58.3759 7.46477 58.4509 8.70518C58.5259 9.94558 58.3478 11.1883 57.9274 12.3577C57.5071 13.5271 56.8532 14.5988 56.0057 15.5076Z" fill="#4bafeb"/>
  <path d="M44.5032 29.2117C43.6332 29.0971 42.7707 28.9321 41.92 28.7176C39.6735 28.1466 37.5369 27.2083 35.5964 25.9405C33.7314 24.7292 32.0718 23.228 30.6802 21.4934L30.3737 21.1118L28.8663 19.3167L25.9204 15.6577C25.8978 16.4046 25.8372 17.1499 25.739 17.8907C25.2892 21.4052 23.9621 24.75 21.8798 27.6167L20.0034 29.8935C19.6573 30.2729 19.2862 30.6294 18.8901 30.963C18.6211 31.207 18.3396 31.4446 18.0519 31.6761L17.095 32.4454L12.1913 36.3984C12.9275 36.4171 13.6624 36.4734 14.3929 36.5673C19.8226 37.249 24.7747 40.0143 28.2033 44.2793L28.5161 44.6671L29.9859 46.4935L32.9319 50.1463C32.9504 49.3996 33.0067 48.6543 33.1008 47.9133C33.5509 44.4186 34.8643 41.091 36.9224 38.231L38.9177 35.8542C39.2554 35.504 39.6057 35.1662 39.9747 34.8409C40.2437 34.597 40.5251 34.3593 40.8129 34.1279L41.7698 33.3586L46.6798 29.4056C45.9417 29.3868 45.2037 29.3243 44.5032 29.2117ZM39.9935 31.1819L39.5369 31.551L39.0803 31.92C38.7801 32.1639 38.4861 32.4079 38.1984 32.6643C34.9141 35.5762 32.493 39.3345 31.1994 43.5288L30.3925 42.5217L30.355 42.4842C28.5476 40.244 26.3476 38.3513 23.8626 36.8988C22.3289 36.0001 20.7013 35.2723 19.0089 34.7284H18.9464L18.7962 34.6846L18.8901 34.6095L19.3779 34.2217L19.8033 33.8715C20.1035 33.6338 20.3974 33.3836 20.6852 33.1272C22.8482 31.206 24.6452 28.9089 25.9892 26.347C26.6666 25.049 27.2255 23.6925 27.6592 22.294L28.4723 23.2947L28.5098 23.3448C30.32 25.5732 32.5172 27.4568 34.996 28.9052C36.5283 29.8098 38.1561 30.5419 39.8496 31.0881H39.9184L40.0623 31.1319L39.9935 31.1819Z" fill="#5EBA24"/>
</svg>