<svg width="253" height="36" viewBox="0 0 253 36" fill="none" xmlns="http://www.w3.org/2000/svg">
<path fill-rule="evenodd" clip-rule="evenodd" d="M235.482 0H189.061C184.335 0.0821833 179.836 2.02414 176.551 5.39923C173.266 8.77432 171.464 13.3065 171.541 18C171.464 22.6935 173.266 27.2257 176.551 30.6008C179.836 33.9759 184.335 35.9178 189.061 36H235.482C240.208 35.9178 244.708 33.9759 247.993 30.6008C251.278 27.2257 253.08 22.6935 253.002 18C253.08 13.3065 251.278 8.77432 247.993 5.39923C244.708 2.02414 240.208 0.0821833 235.482 0Z" fill="#CCE6F4"/>
<path d="M130.924 0.466797H123.545V35.3422H130.924V0.466797Z" fill="#202F79"/>
<path fill-rule="evenodd" clip-rule="evenodd" d="M235.022 13.272C234.239 13.2465 233.473 13.5021 232.865 13.992C232.248 14.534 231.839 15.2704 231.705 16.0771H238.19C238.138 15.2898 237.776 14.5544 237.183 14.0293C236.59 13.5041 235.813 13.2311 235.019 13.2691M235.019 9.80159C236.486 9.76393 237.936 10.1117 239.224 10.8096C240.375 11.4504 241.312 12.4121 241.92 13.5758C242.549 14.7961 242.867 16.1507 242.847 17.5214C242.866 18.0829 242.797 18.6438 242.645 19.1846H231.573C231.664 20.0945 232.093 20.938 232.776 21.5506C233.5 22.1551 234.425 22.4676 235.37 22.4261C236.056 22.4421 236.734 22.284 237.341 21.9667C237.886 21.6752 238.338 21.2377 238.646 20.7038L242.126 22.3382C241.61 23.5223 240.706 24.4982 239.561 25.1073C238.24 25.802 236.767 26.1616 235.272 26.1541C233.777 26.1465 232.308 25.7721 230.994 25.0642C229.764 24.3636 228.755 23.3351 228.081 22.0949C227.391 20.8222 227.037 19.3962 227.053 17.9506C227.034 16.4981 227.394 15.0654 228.097 13.7918C228.767 12.5749 229.76 11.563 230.967 10.8657C232.199 10.1539 233.602 9.78714 235.027 9.80447" fill="#202F79"/>
<path d="M7.63393 0.466797H0V35.3422H7.63393V0.466797Z" fill="#202F79"/>
<path fill-rule="evenodd" clip-rule="evenodd" d="M138.012 0.466797H161.605V6.78696H145.311V14.6983H160.663V21.0185H145.311V29.022H161.605V35.3422H138.012V0.466797Z" fill="#202F79"/>
<path fill-rule="evenodd" clip-rule="evenodd" d="M15.1309 0.466797H20.7856L36.764 21.2028V0.466797H44.1355V35.3422H38.4285L22.5024 14.1353V35.3422H15.1309V0.466797Z" fill="#202F79"/>
<path fill-rule="evenodd" clip-rule="evenodd" d="M87.2988 0.46875H95.3909L103.722 25.9827L112.049 0.46875H120.141L108.004 35.3441H99.4348L87.2988 0.46875Z" fill="#202F79"/>
<path fill-rule="evenodd" clip-rule="evenodd" d="M187.782 19.7236H181.686V16.1236H187.782V10.2715H191.394V16.1236H197.461V19.7236H191.394V25.956H187.782V19.7236Z" fill="#202F79"/>
<path fill-rule="evenodd" clip-rule="evenodd" d="M200.639 10.1485H204.684V12.068C205.052 11.3187 205.666 10.716 206.424 10.3587C207.265 9.96975 208.184 9.77808 209.111 9.79853C210.098 9.78601 211.074 10.0077 211.957 10.4451C212.761 10.8274 213.438 11.43 213.908 12.1817C214.449 11.404 215.182 10.7767 216.036 10.3596C216.891 9.94245 217.839 9.74931 218.789 9.79853C219.845 9.77799 220.887 10.0353 221.81 10.5444C222.682 11.0382 223.398 11.7645 223.876 12.6411C224.39 13.5941 224.648 14.6621 224.627 15.7429V25.8228H220.293V16.6601C220.336 15.8659 220.073 15.0854 219.557 14.4771C219.017 13.9623 218.297 13.6748 217.548 13.6748C216.8 13.6748 216.08 13.9623 215.54 14.4771C215.024 15.085 214.76 15.8658 214.804 16.6601V25.8228H210.46V16.6601C210.503 15.8658 210.24 15.085 209.723 14.4771C209.183 13.9623 208.463 13.6748 207.715 13.6748C206.966 13.6748 206.247 13.9623 205.707 14.4771C205.189 15.0846 204.925 15.8656 204.969 16.6601V25.8228H200.635L200.639 10.1485Z" fill="#202F79"/>
<path fill-rule="evenodd" clip-rule="evenodd" d="M58.0126 33.6346C55.229 32.1192 52.9141 29.8789 51.3168 27.1546C49.6869 24.3703 48.8476 21.1993 48.8881 17.9789C48.848 14.7586 49.6873 11.5877 51.3168 8.80323C52.9108 6.08154 55.2271 3.84698 58.0126 2.34339C60.9392 0.807012 64.1994 0.00390625 67.5097 0.00390625C70.82 0.00390625 74.0802 0.807012 77.0068 2.34339C79.7918 3.84713 82.1075 6.08169 83.7011 8.80323C85.3294 11.5881 86.1681 14.7588 86.1284 17.9789C86.1686 21.199 85.3298 24.3699 83.7011 27.1546C82.1043 29.8788 79.7898 32.1191 77.0068 33.6346C74.0846 35.1851 70.8227 35.9962 67.5097 35.9962C64.1967 35.9962 60.9347 35.1851 58.0126 33.6346ZM57.6878 23.9952C58.6453 25.7007 60.0549 27.1131 61.7635 28.0791C63.5219 29.0487 65.5 29.5575 67.5111 29.5575C69.5223 29.5575 71.5003 29.0487 73.2587 28.0791C74.9671 27.1127 76.3766 25.7004 77.3345 23.9952C78.344 22.1789 78.8555 20.131 78.8178 18.0567C78.855 15.9824 78.3435 13.9347 77.3345 12.1181C76.3847 10.4206 74.9825 9.0157 73.2819 8.05731C71.5098 7.10324 69.5261 6.60355 67.5104 6.60355C65.4947 6.60355 63.5109 7.10324 61.7389 8.05731C60.0388 9.01597 58.6373 10.4209 57.6878 12.1181C56.6787 13.9346 56.1672 15.9824 56.2045 18.0567C56.1667 20.131 56.6783 22.1789 57.6878 23.9952Z" fill="#202F79"/>
</svg>
