<svg xmlns="http://www.w3.org/2000/svg" width="62" height="32" viewBox="0 0 62 32" fill="none">
  <g clip-path="url(#clip0_1437_1727)">
    <path d="M16.8063 6.6215H16.2682C15.3813 6.6215 15.0168 6.2758 15.0168 5.58284C15.0168 4.88988 15.3844 4.54418 16.2682 4.54418H16.8094V2.61859C16.8094 1.57993 17.4351 1.0387 18.3893 1.0387C19.3435 1.0387 19.9692 1.57993 19.9692 2.61859V4.54418H20.9218C21.8604 4.54418 22.35 4.82574 22.35 5.58284C22.35 6.33993 21.8526 6.6215 20.9218 6.6215H19.9692V12.9411C19.9692 13.4103 20.2289 13.6778 20.792 13.6778H21.2456C21.9386 13.6778 22.35 14.0673 22.35 14.7368C22.35 15.6456 21.5679 16.1446 20.0552 16.1446C17.762 16.1446 16.8094 15.192 16.8094 13.329L16.8063 6.6215Z" fill="white"/>
    <path d="M26.6736 10.7933C26.6736 12.4592 27.756 13.6715 29.5956 13.6715C31.9764 13.6715 31.9764 12.1072 33.2528 12.1072C33.5858 12.1084 33.9059 12.2368 34.1473 12.4663C34.3887 12.6958 34.5331 13.0089 34.5511 13.3414C34.5511 15.2451 31.4993 16.1336 29.5956 16.1336C25.1813 16.1336 23.5138 13.1459 23.5138 10.3991C23.5138 6.71997 25.7428 4.25159 29.4876 4.25159C33.123 4.25159 35.2003 6.8279 35.2003 9.42456C35.1956 10.518 34.8827 10.7933 33.8159 10.7933H26.6736ZM32.2141 8.97405C32.0405 7.52556 30.9627 6.47126 29.5549 6.47126C27.975 6.47126 27.024 7.44422 26.6767 8.97405H32.2141Z" fill="white"/>
    <path d="M37.2291 5.84246C37.2291 4.8914 37.6608 4.26257 38.6573 4.26257C39.6537 4.26257 40.0854 4.88827 40.0854 5.84246V6.25699H40.1292C41.0162 5.0885 42.1627 4.2657 43.9585 4.2657C45.8638 4.2657 47.9411 5.21833 47.9411 8.42191V14.5647C47.9411 15.4078 47.5938 16.1446 46.3612 16.1446C45.1286 16.1446 44.7813 15.4078 44.7813 14.5647V9.04605C44.7813 7.76962 44.1556 6.8561 42.79 6.8561C42.1422 6.86966 41.5261 7.139 41.0762 7.60529C40.6263 8.07159 40.3792 8.69695 40.3889 9.34482V14.5647C40.3889 15.4078 40.0416 16.1446 38.809 16.1446C37.5764 16.1446 37.2291 15.4078 37.2291 14.5647V5.84246Z" fill="white"/>
    <path d="M61.1621 14.6508C61.1621 15.6253 60.7085 16.1446 59.734 16.1446C58.8032 16.1446 58.3058 15.6253 58.3058 14.6508V14.1533H58.262C57.7427 15.4954 56.4662 16.1446 54.9302 16.1446C52.2897 16.1446 49.9731 14.2175 49.9731 10.1285C49.9731 7.09856 51.5107 4.26258 54.8426 4.26258C56.2504 4.26258 57.3313 4.84761 57.9585 5.86437H58.0023V1.57989C58.0023 0.54123 58.628 0 59.5822 0C60.5364 0 61.1621 0.54123 61.1621 1.57989V14.6508ZM55.6435 13.6778C57.483 13.6778 58.176 12.0322 58.176 10.2364C58.176 8.61275 57.569 6.70906 55.6435 6.73096C53.6318 6.73096 53.1328 8.76449 53.1328 10.2364C53.1375 12.0979 53.9666 13.634 55.6481 13.6778H55.6435Z" fill="white"/>
    <path d="M0 20.8044C0 19.7095 0.749275 19.4561 1.48134 19.4561H2.27911C3.1285 19.4561 3.53051 19.7892 3.81051 20.7075L6.18973 28.3957H6.22414L8.57052 20.7075C8.85365 19.7924 9.25253 19.4561 10.1004 19.4561H10.8668C11.5989 19.4561 12.3482 19.7063 12.3482 20.8044V30.5388C12.3482 31.2208 12.015 31.8699 11.1328 31.8699C10.2505 31.8699 9.91734 31.2208 9.91734 30.5388V23.118H9.88449L7.33789 31.0722C7.15487 31.6369 6.73878 31.8699 6.17409 31.8699C5.6094 31.8699 5.19174 31.6369 5.00872 31.0722L2.46213 23.118H2.42928V30.5388C2.42928 31.2208 2.09609 31.8699 1.21542 31.8699C0.334749 31.8699 0 31.2208 0 30.5388V20.8044Z" fill="white"/>
    <path d="M16.5904 27.7607C16.5904 29.0418 17.421 29.9741 18.8367 29.9741C20.6668 29.9741 20.6668 28.7759 21.6523 28.7759C21.9082 28.7767 22.1541 28.8753 22.3397 29.0515C22.5252 29.2278 22.6363 29.4683 22.6503 29.7238C22.6503 31.1879 20.3039 31.87 18.8398 31.87C15.4438 31.87 14.1627 29.5736 14.1627 27.4603C14.1627 24.6322 15.8834 22.7347 18.7553 22.7347C21.5522 22.7347 23.1493 24.7151 23.1493 26.7111C23.1493 27.5432 22.899 27.7607 22.0841 27.7607H16.5904ZM20.8499 26.3622C20.7169 25.2469 19.8847 24.432 18.8023 24.432C17.5884 24.432 16.8563 25.1812 16.5904 26.3622H20.8499Z" fill="white"/>
    <path d="M32.9462 30.7218C32.9462 31.471 32.5974 31.8699 31.8512 31.8699C31.1364 31.8699 30.7563 31.471 30.7563 30.7218V30.3464H30.7234C30.3245 31.3772 29.3422 31.8762 28.1612 31.8762C26.1276 31.8762 24.3491 30.3948 24.3491 27.2507C24.3491 24.92 25.5317 22.741 28.0939 22.741C29.1748 22.741 30.007 23.1899 30.4903 23.972H30.5232V20.6715C30.5232 19.8721 31.0065 19.4561 31.7386 19.4561C32.4707 19.4561 32.9525 19.8721 32.9525 20.6715L32.9462 30.7218ZM28.704 29.9741C30.1118 29.9741 30.6499 28.7086 30.6499 27.3274C30.6499 26.076 30.1806 24.6149 28.704 24.6322C27.1554 24.6322 26.7737 26.1964 26.7737 27.3274C26.7737 28.7586 27.4056 29.9396 28.704 29.9741Z" fill="white"/>
    <path d="M36.2233 19.3966C36.4737 19.3963 36.7186 19.4703 36.927 19.6092C37.1353 19.7482 37.2977 19.9458 37.3937 20.1771C37.4897 20.4084 37.5149 20.663 37.4661 20.9086C37.4173 21.1542 37.2968 21.3798 37.1197 21.5569C36.9426 21.734 36.717 21.8545 36.4714 21.9033C36.2257 21.9521 35.9712 21.9269 35.7399 21.8309C35.5086 21.735 35.3109 21.5725 35.172 21.3642C35.0331 21.1558 34.9591 20.9109 34.9594 20.6605C34.9594 20.3253 35.0926 20.0038 35.3296 19.7668C35.5666 19.5298 35.8881 19.3966 36.2233 19.3966ZM35.0095 23.9548C35.0095 23.3072 35.2754 22.741 36.2233 22.741C37.1712 22.741 37.4387 23.3072 37.4387 23.9548V30.6592C37.4387 31.3084 37.1728 31.8731 36.2233 31.8731C35.2738 31.8731 35.0095 31.3084 35.0095 30.6592V23.9548Z" fill="white"/>
    <path d="M43.5956 22.7347C45.6291 22.7347 47.1402 23.8829 47.1402 25.0139C47.1402 25.7131 46.624 26.0619 46.0092 26.0619C44.8611 26.0619 45.2772 24.6322 43.5299 24.6322C42.5804 24.6322 41.4651 25.2798 41.4651 27.4775C41.4651 28.9917 42.1815 29.9803 43.5127 29.9803C45.2099 29.9803 44.8439 28.4161 46.125 28.4161C46.2531 28.4089 46.3814 28.4275 46.5023 28.4707C46.6231 28.5138 46.7341 28.5808 46.8288 28.6675C46.9234 28.7542 46.9996 28.859 47.0531 28.9757C47.1066 29.0923 47.1362 29.2185 47.1402 29.3468C47.1402 30.4121 45.942 31.8762 43.4454 31.8762C40.4499 31.8762 39.0358 30.0288 39.0358 27.4838C39.0358 24.6822 40.6173 22.7347 43.5956 22.7347Z" fill="white"/>
    <path d="M56.5085 29.3077C56.5085 30.3229 56.7572 30.5591 56.7572 30.9392C56.7572 31.4882 56.2426 31.8777 55.6622 31.8777C54.6142 31.8777 54.2653 31.2129 54.2309 30.4699C53.283 31.518 52.1849 31.8777 50.9038 31.8777C49.5225 31.8777 48.157 30.9298 48.157 29.3984C48.157 27.3852 49.6884 26.819 51.5529 26.6031L53.028 26.4357C53.6115 26.3685 54.0776 26.2355 54.0776 25.5363C54.0776 24.8371 53.3612 24.5383 52.5462 24.5383C50.7489 24.5383 50.6989 25.8695 49.7306 25.8695C49.1143 25.8695 48.6982 25.4362 48.6982 24.9309C48.6982 23.9658 50.0638 22.741 52.5603 22.741C54.8895 22.741 56.5038 23.4902 56.5038 25.2438L56.5085 29.3077ZM54.0792 27.5604C53.8117 27.8107 53.3127 27.8936 53.0296 27.9437L52.1489 28.0766C51.1337 28.2252 50.5847 28.5459 50.5847 29.2748C50.5847 29.8239 51.0993 30.2728 51.9315 30.2728C53.2627 30.2728 54.0792 29.4078 54.0792 28.5084V27.5604Z" fill="white"/>
    <path d="M58.7375 20.6715C58.7375 19.8721 59.2193 19.4561 59.9514 19.4561C60.6835 19.4561 61.1621 19.8659 61.1621 20.6715V30.6592C61.1621 31.457 60.6788 31.8731 59.9467 31.8731C59.2146 31.8731 58.7328 31.457 58.7328 30.6592L58.7375 20.6715Z" fill="white"/>
    <path d="M2.22749 4.86949L4.07956 7.07821C4.01386 7.13609 3.94816 7.1924 3.8809 7.24715L3.63062 7.44894L0.539664 3.76357C0.346364 3.53308 0.200353 3.26679 0.109968 2.97988C0.0195834 2.69297 -0.0134053 2.39106 0.0128857 2.09141C0.0391767 1.79175 0.124232 1.5002 0.263196 1.23341C0.402161 0.966625 0.592312 0.729821 0.822793 0.536521C1.05327 0.34322 1.31957 0.19721 1.60648 0.106825C1.89339 0.0164401 2.19529 -0.0165486 2.49495 0.00974239C2.79461 0.0360333 3.08616 0.121089 3.35295 0.260053C3.61973 0.399017 3.85654 0.589168 4.04984 0.81965L5.61409 2.67954L5.59062 3.55865L4.84917 2.67328C4.55283 2.34636 4.14148 2.1468 3.70128 2.11639C3.26109 2.08599 2.82621 2.2271 2.48773 2.51018C2.14926 2.79325 1.93345 3.19632 1.88553 3.63495C1.8376 4.07358 1.96126 4.51374 2.23062 4.86323L2.22749 4.86949Z" fill="white"/>
    <path d="M13.5386 15.7019C13.0728 16.0919 12.4712 16.2809 11.8661 16.2275C11.261 16.1742 10.7018 15.8827 10.3115 15.4172L8.7598 13.5573L8.77387 12.6704L9.51689 13.5573C9.81323 13.8843 10.2246 14.0838 10.6648 14.1142C11.105 14.1446 11.5399 14.0035 11.8783 13.7204C12.2168 13.4374 12.4326 13.0343 12.4805 12.5957C12.5285 12.157 12.4048 11.7169 12.1354 11.3674L10.2818 9.1571C10.3459 9.10079 10.4132 9.04291 10.4805 8.98817L10.7307 8.78638L13.8233 12.4733C14.2133 12.9394 14.4024 13.5412 14.349 14.1465C14.2956 14.7519 14.0042 15.3113 13.5386 15.7019Z" fill="white"/>
    <path d="M6.84516 12.0806L4.04515 15.4156C3.65456 15.8809 3.09513 16.1719 2.48994 16.2247C1.88475 16.2775 1.28338 16.0878 0.818106 15.6972C0.352835 15.3066 0.0617842 14.7471 0.00898056 14.142C-0.0438231 13.5368 0.145946 12.9354 0.536541 12.4701L2.8485 9.71704C3.07938 9.72175 3.30953 9.74477 3.53677 9.78587L2.20247 11.3783C1.9462 11.7306 1.83313 12.167 1.88608 12.5995C1.93903 13.0319 2.15405 13.4282 2.48776 13.7083C2.82146 13.9884 3.24899 14.1315 3.68407 14.1087C4.11915 14.0859 4.52938 13.8989 4.83197 13.5854L6.47756 11.6254L6.84516 12.0806Z" fill="white"/>
    <path d="M13.8264 3.76826L11.516 6.51977C11.2852 6.5135 11.0552 6.4905 10.8277 6.45094L12.1652 4.85854C12.4175 4.50546 12.5271 4.07007 12.472 3.6396C12.4169 3.20914 12.2011 2.81539 11.868 2.53726C11.5349 2.25912 11.1089 2.11713 10.6756 2.13975C10.2422 2.16236 9.83334 2.34791 9.53096 2.6592L7.88537 4.61139L7.51778 4.15619L10.324 0.821212C10.5117 0.573522 10.7479 0.3666 11.0181 0.213029C11.2882 0.0594587 11.5868 -0.0375506 11.8957 -0.0720993C12.2046 -0.106648 12.5172 -0.0780142 12.8146 0.0120609C13.1121 0.102136 13.3881 0.25177 13.6259 0.451863C13.8637 0.651956 14.0583 0.898327 14.1979 1.17599C14.3375 1.45366 14.4191 1.75682 14.4379 2.06703C14.4567 2.37724 14.4121 2.68803 14.307 2.98049C14.2019 3.27295 14.0383 3.54097 13.8264 3.76826Z" fill="white"/>
    <path d="M10.9497 7.19551C10.7322 7.16686 10.5165 7.1256 10.3037 7.07194C9.74189 6.92914 9.20754 6.69447 8.72225 6.37741C8.25584 6.07449 7.84078 5.69903 7.49275 5.26523L7.41611 5.16981L7.03912 4.72087L6.30236 3.80579C6.29671 3.99258 6.28156 4.17897 6.257 4.36422C6.14452 5.24317 5.81261 6.07967 5.29186 6.79663L4.82258 7.36602C4.73603 7.46091 4.64321 7.55008 4.54415 7.6335C4.47688 7.69451 4.40649 7.75395 4.33454 7.81183L4.09521 8.00423L2.86884 8.99283C3.05297 8.99751 3.23675 9.01161 3.41945 9.03507C4.77736 9.20556 6.01583 9.89715 6.87331 10.9638L6.95152 11.0608L7.31912 11.5175L8.05588 12.4311C8.0605 12.2443 8.0746 12.0579 8.09812 11.8726C8.21068 10.9986 8.53915 10.1664 9.05387 9.45116L9.55287 8.85674C9.63734 8.76915 9.72494 8.68468 9.81723 8.60334C9.88449 8.54233 9.95488 8.48289 10.0268 8.42501L10.2662 8.23261L11.4941 7.244C11.3095 7.23931 11.1249 7.22367 10.9497 7.19551ZM9.82192 7.68825L9.70773 7.78054L9.59354 7.87283C9.51846 7.93384 9.44494 7.99484 9.37298 8.05898C8.55161 8.78722 7.94611 9.72712 7.62259 10.7761L7.4208 10.5242L7.41141 10.5148C6.95941 9.95458 6.40921 9.48124 5.78772 9.11797C5.40416 8.89322 4.99711 8.7112 4.57387 8.57518H4.55822L4.52068 8.56423L4.54415 8.54546L4.66616 8.44848L4.77253 8.36088C4.84761 8.30144 4.92113 8.23887 4.99308 8.17473C5.53403 7.69427 5.98345 7.11978 6.31957 6.47909C6.48899 6.15446 6.62877 5.8152 6.73722 5.46545L6.94057 5.71573L6.94996 5.72825C7.40266 6.28555 7.95216 6.75663 8.57209 7.11886C8.95531 7.34509 9.36241 7.52818 9.78594 7.66479H9.80315L9.83913 7.67574L9.82192 7.68825Z" fill="white"/>
  </g>
  <defs>
    <clipPath id="clip0_1437_1727">
      <rect width="61.1668" height="31.87" fill="white"/>
    </clipPath>
  </defs>
</svg>